<svg enable-background="new 0 0 1000 1000" height="1000" viewBox="0 0 1000 1000" width="1000" xmlns="http://www.w3.org/2000/svg"><path d="m960.692 305.367c-25.187-59.546-61.233-113.015-107.138-158.92-45.906-45.906-99.375-81.954-158.921-107.139-61.665-26.083-127.151-39.308-194.633-39.308-67.484 0-132.968 13.225-194.635 39.308-59.544 25.185-113.013 61.233-158.919 107.139s-81.953 99.375-107.139 158.92c-26.082 61.665-39.307 127.15-39.307 194.633 0 67.482 13.225 132.969 39.307 194.633 25.186 59.547 61.233 113.014 107.139 158.922 45.905 45.902 99.374 81.952 158.919 107.139 61.668 26.08 127.153 39.306 194.635 39.306 67.481 0 132.966-13.226 194.634-39.307 59.546-25.187 113.015-61.236 158.921-107.139 45.904-45.908 81.951-99.375 107.138-158.922 26.082-61.667 39.307-127.15 39.307-194.632s-13.225-132.966-39.308-194.633zm-498.149 621.664c-220.207-18.848-390.657-203.258-390.657-426.021 0-13.923.666-27.696 1.968-41.287.977-10.195 2.311-20.287 3.992-30.264 2.24-13.304 5.094-26.402 8.533-39.267 1.72-6.432 3.586-12.805 5.594-19.116 1.004-3.154 2.043-6.295 3.119-9.418 53.747-156.169 195.416-271.945 367.451-286.671zm73.896-.008v-336.812l238.014 238.014c-67.264 56.56-150.803 91.234-238.014 98.798zm290.271-151.049-290.271-290.269v-410.718c192.68 16.494 347.267 159.743 382.904 344.533.634 3.3 1.232 6.613 1.793 9.939 1.68 9.977 3.015 20.069 3.992 30.264 1.303 13.591 1.968 27.364 1.968 41.287 0 100.851-35.548 197.927-100.386 274.964z" fill="#e83828"/></svg>