<svg xmlns="http://www.w3.org/2000/svg" xml:space="preserve" x="0px" y="0px" style="enable-background:new 0 0 483 442" viewBox="0 0 483 442"><path d="m365.618 97.476-.165-1.647-.659-.494h-.658l-.165-.165-.659-.494.165-1.153v-.494l.164-.33.33-1.153.494-1.317.494-1.318v-.824l-.329-1.482.164-.988.165-.33v-.494l-.659-1.977-.659-1.153-.494-.494-.329-.329-.494-1.153-.33-.494v-.165l-.164-.165-.495-.659-.988-.823-.494-.33-.165-.164-.329.164h-.988l-1.153.33-.824-.659-.329-.494-.495-.33-.164-.164h-.824l-.988.164-.494-.164h-.33l-2.8-.33-1.153-.494-.659-.659-1.153-.823-3.129-3.459-5.436-1.647h-.988l-1.153-.165-.165-.659-.329-.165-.824-.329-1.318-.165h-.329l-.659-.494h-.165l-.164.329-.165.165-.165.165h-.329l-1.318-.165-.988.824-1.318 1.153-.659.494-.494.329-.823.33-.33.164-.165.165-.494.33-.659.658-.329.33-.659.988-.329.494-.824 1.318-.165.329-.494.659-.164.165-.165.165-.165.329-.988.494-1.153.659-1.647.494-1.318.659-.494.33-1.482.658-.989 1.153-.659.989-.329.494-.494.823-.33.33-.659 1.647-.823.329h-.988l-.824.659h-1.482l-.165-.164-.988-.33-.495-.329-.658-.165-.824-.165-.988-.164v-.165l-1.318-.33h-.988l-.33-.164h-.659l-.823-.33-.824-.494-.164-.329-.33-.989v-.823l.165-.165.329-.823.494-1.153.165-.659h-.329l-1.318.164-.988.659-.659.33-.494.329-.33.165-.658.165h-1.812l-.659.823-.165.494-.824.659-.988.824-.659.494-.329.823-.494.495-.33.329-.164.165-.165.329-.165.33-.164.164h-.165l-1.647.165h-1.812l-.988-.165-.495-.164h-.164l-.659.494-.824.823h-.494l-.165-.164v-.165h-.164l-.824.329-.988.494-.165.659-.988.989-.494 1.976.164.33-.164 1.482-.165.329-.329.165-.989 1.318-.494.494-.659.329-.165.165-.658-.494-.165.165-.33.329-.164.494-.33.165h-.329l-.165.165-.659.329h-.329l-.494.33-.165.164-1.153.33h-.329l-.659.659-.33-.989h-.164v-.494l-.659.165v.329h-.989l-.164.494h-.659l-.824.659-.329.165.329.329v.165h-.494l-.165.165-.658.494-.33.329-.164.165-.33.33-.329.329-.33.165-.823.329h-.165l-.824-2.471-.823.165-.494.165-.494.165-.495.164-.988.33-.329.164.659 2.306.164.824-.823.329-.659-.494-.659-.329-.165.329-.823 1.318-1.812-.659-.659 1.153v.165l-.494.988-.33.659-.164.494.658 1.318v.494l-1.152.659-.165.165-1.153.494-1.318-.165-.988.329.329.659.165.494h-.329l.658 1.483.33.494-.494.165-.659.329.329.659.494.988.165.494.165.495.494.823.165.494.494 1.483.823-.33 1.483-.494 2.635-.823 1.483-.659 1.153-.494h.494l.988 2.47.33.824.164.494.165.494-.165 1.318 1.153.165h7.412v6.259h3.13l.659.164h.329l.824.495v-.165l.823-.494.494.659.165.164-.494.33h-.165l-.494.329-.164.165-1.977 2.635-.988 1.812-.165.165v.165l.165 1.482.823.988v1.647l-.164.824-.165.329-.165.659-.329.989-.165.988v2.8l.165.659.164 4.612.165 2.306v3.294l-2.635 2.636.988 1.811.329.33.494.165 2.965 1.153 2.471 1.976v1.812h1.318l-.165.329-.329.824-.33 1.647v.494l.165.824v.494l.165.494.164.33v6.423l-.164.495v.164l-.165.659-.165.33-.329.494-.165.329-.165.165-.494.494-.329.165-.494.164-1.483.33-.494.165h-.823l-.659-.165-.824-.165-.329-.165-.659-.329-.165.165-1.976.823-.824 2.471-.988.329-1.318.33-.824.165h-.164l-1.318.164-.988-.988-.494-1.482-.824-.989-.165-.329-1.318.165h-.329l-.824.164h-.329l-.329.165h-.165l-1.977.165v.164l-2.635 4.777h.824l.329-.329h.165l.164-.165v.165h.33l.329.329.824.33.164.329.495.165.164.164.165.165h.33v.165h.164v.165l.165.164v.33l.165.164h.494v.165h.164l-.329.824v.164l1.482.33 1.483.329 1.647.494 1.483.495h.164l.659.164 1.647.494 1.647.495.824.164v.165l.988.165.494.164 1.483.495 1.647.329 1.482.494.495.165h.164l.988.329h.33l.329.165h.33l.329.165h.165l.329.164h.33l.329.165h.494l.659.165h2.306l1.153.165h1.483l.494.164h2.306v.165h1.647l1.153.165h1.976l.989.164h1.317l1.318.165 2.142.165v1.153l-.165.988 1.482-.165.824-.164h.494l1.153.164h.823l.824.165h.165l.494.165h.165l1.153.329.658.165 1.153.494.33.165.823.494.165-1.153v-.329l.165-.824v-.824h.329l.659.165.33.165.329.165.494.164.989.33h.329l.165.164.494.165.329.165.33.165h.494l.329.164.165.165h.165l.494.165.494.164h.165l.823.33.33.165h.329l.329-.659.165-.165.824-.329 1.317-.165.33-.165-.494-.165-.824-.164-.659-.33-.164-.164h.329v-.165l-.329-.165v-.165h-.33v-.164h-.165v-.33l-.164-.164h-.165l.165-.495.164-.494v-.329l-.164-1.153-.33-.165v-.165l.494-.494v-.659h-.164l-.33-.329.165-.165v-.494l-.165-.329h.33l1.153-.165h.494l.165-.165.164-.164.165-.165.165-.165.164-.165.165.33.165.329v.165l.165.494h.164l.165.165h1.812l.165.165v.329l-.165.329v.659l.165.33.164.164.165.165.824.988.164.165v.165l.33.165.164-.165h.495l.164.165.165.164h.165l.494.33.165.164h3.623l1.977-.164h.823v-.165l1.153-.659h.165l.165-.165.329-.164h.165l.494-.165h.165l.494.165h3.624l.164-.165.659-.165.494-.329.495-.165.988-.494h.165l.494-.329.494.164.165-.329.164-.165v-.823h.165l.165-.165.164-.165.33-.165h.165v-.164h.164l.165-.165h.165l.164-.165h.33v-.823l.165-.824h1.153l.494.165v-.988l-.165-.659v-1.318l-.165-.659v-.823l.165-.33v-.329l.165-.33-1.647-.494-.824-.165-.165-.164.33-.824v-.165l.164-.329v-.494l.33-.988.165-.33v-.494l.164-.659-1.153-.165-1.153-.329h-.494l-1.153-.329h-.165v.658h-.164l-1.483-.164v.494h-.164l-.165.165v.164h-.494v-.164h-.494v.494h-.165l-.165.329v.165h.165v.165l-.33.164-.164.165v.165l-.33.329-.164-.329-.165.164h-.165l-.494.165-.165-.494v-.494l-.164-.165.329-.165h.165l-.165-.494.165-.164h-.165v-.165h-.165l-.164-.165v-.165l-.33-.494v-.164l-.329-.495h-.165l-.824-.164h-.658l-2.801-.165-2.635-.165h-1.647l-.494-.164h-.33v-.165l-.164-.165v-1.647l-.33-.824v-1.317l.165-.33.165-.329.164-.33.165-.494.165-.659v-.658l.164-.33v-1.647l.165-.494-.165-.659v-.329l-.329-.824v-.494l-.165-.165v-.494l.165-.165.165-.164.988-.33 2.306-.823.329-.165.165-.165h.165l.329-.165.494-.164h.165l.659-.33.494-.164v-.659l.165-.165.165.165v.823l.329 1.812v.659h.165l4.282-2.471.33-.329 2.965-1.483 4.117-.494 1.812-.164 1.318-.33 2.306-.165 2.8-.494 1.977-3.294 2.635-.165 4.118.989-.494-.989-.33-.659-.823-.658-.988-.165-.33-.165-2.306.165.33-.659.494-.988.329-.659.824-.165v-.494l.659-1.153.494-.494v-1.153l-.165.165-.329.164-.495-.494-1.153-.823-1.811.494h-.495l-.988-.494-.988-.824-.988-.659-1.318-.494-1.977-.824v-.494h-.164l-.165-.329-.659-1.318-.165-.988-.494-.659-.659-.165v-.494l.165-.659v-1.482l-.329-.494v-1.483l-.495-.329-.329-.33.165-.329v-.329l-.165-.33-.329-.329-.165-.824-.33-.659-.164-1.317v-.165l.164-.824-.823-1.812-.33-1.153-.164-.329v-.824l.659-.988v-.659l-.659-.988-.494-.659h-.824l-.329-.494-.495-.659.165-.165h.165v-.164l.494-.33.329-.329.659.165.494.164 1.318.824.33-.824v-.329l.164-.165h.165l.329-.494.824-.494.494-.659.165-.988.329-.494.989.329.164.165.33.164.494.495.165.494h.658l.495-.165.329-.329.329-.165h.495l.329.329.494.165h.33l.494-.165.329-.494.659-.329h.824l1.153-.494.494-.33.329-.823.494-.989 1.318-1.812.329-.329 2.471-1.318-1.812-2.306-.164-1.153v-.164l.164-.495.33-.658 1.812-1.648 3.129-.164 2.8-2.8.824-.659.165-.165-.165-1.482v-.165h-.165l-.329-.824-.33-1.317 1.153-1.648z" style="fill:#580009;stroke:#fff;stroke-miterlimit:10"/><path d="m473.176 197.622-.164-.164.164-.33.165-.329-.165-.494v-.989l-.823-.494-2.965-1.318-.494-.494-.165-.659-.494-1.482-.165-2.306-.823-.824v-1.317l-2.965-.989-2.471-.988-1.812-1.318h-.164l-.989-1.647-.988-.659-.329-.329-.495-.329-.164-.33-.659-.823-.659-.989-.329-.164-.659-.495-1.483-.988-2.141-.659-.329-.329-.165-.165-1.318-1.318-.329-.164-.824-.165-.165-.165-1.647-.494h-2.635l-1.647.165-.165.165-2.965.329-2.965-.329h-3.129l-1.318-.33-1.812-.329-1.482.329-.165.165-1.318 1.318.165.164 1.153 1.812-1.482 2.636-.495.164-.988.494-.329-.164-.989-.494-1.811.164-.495-.659-.164-.164v-.494l-.989-.165-.329-.659v-.659l-.824.33-.494.329-.494-.165-.494-.329-1.153-.824h-.165l-.494.165-2.306 1.153-1.153.824.165.823.329.824-.659 2.635-.164 1.647v1.153l-.165.824v.165l-1.482-.495-1.318-.823-.988-.494-1.483-1.977v-.329l-.329-1.483-1.153-.988-.989-.659-.658-1.153-.495-.823-.494-1.483-1.812-1.976-.164-.33-.659-.329-.494-.165-.33-.165-.329-.823-.494-.659-1.647-1.977.329-1.647-.988-.329v-.33l-.165-.823.824-.989.164-.823 1.318-.659.494-.165.988-1.153-.329-.988.988-1.482.659-.989h.988l.165-.164.33-.495.164-.494v-.494l-.164-.165 1.647-1.811h.659l.494-.165-.33-3.13v-.164l-.494-.659-.494-.824-1.812.494h-.988l-1.153-.988-1.812-1.318-1.647-1.812-.33-.329-.988-.494-.988-.33h-1.153l.165-.494v-.494l-.495-1.482-.988-.989-.165-.329-.329-1.153-.659-.329-.329-2.306h-.165l-.165-.165-1.153-.494-.164-.494-.659-1.153v-1.483l-1.318-.988-.329-.33-.165-.658-.33-.495-.494-1.153-.823-1.153v-.164l-.165-.33-.494-1.153.165-1.812.164-.164v-.165l.33-3.953 1.153-1.318 1.317-.823.33-.165.494-.33-.165-.658-.823-1.318h-.33l-.164-.659-.33-.494-.988-.659-.33-.659-.329-1.153-.494-1.647-.824-.824-.329-.823v-.33l-.165-.164-.329-.165-1.977.165h-.329l-.33.164-.494-.329-.494-.329-.659-.165-.494-.824v-.329l-.165-.165-.164-1.647-.495-1.153v-.165l-.164-.823.329-1.153-.165-.33-.658-.659h-1.153l-.495-.164-.988-.659-.329-.494-.165-.494-.494-.495v-.164l-.33-.165-1.153-.329-1.153-.165-.329-.165-.165-.165-.494-.494v-.164l-1.976-.33-.33-.988-.329-.33-.165-.164h-.824l.659.494.165 1.647-.165.329-1.153 1.648.33 1.317.329.824h.165v.165l.165 1.482-.165.165-.824.659-2.8 2.8-3.129.164-1.812 1.648-.33.658-.164.495v.164l.164 1.153 1.812 2.306-2.471 1.318-.329.329-1.318 1.812-.494.989-.329.823-.494.33-1.153.494h-.824l-.659.329-.329.494-.494.165h-.33l-.494-.165-.329-.329h-.495l-.329.165-.329.329-.495.165h-.658l-.165-.494-.494-.495-.33-.164-.164-.165-.989-.329-.329.494-.165.988-.494.659-.824.494-.329.494h-.165l-.164.165v.329l-.33.824-1.318-.824-.494-.164-.659-.165-.329.329-.494.33v.164h-.165l-.165.165.495.659.329.494h.824l.494.659.659.988v.659l-.659.988v.824l.164.329.33 1.153.823 1.812-.164.824v.165l.164 1.317.33.659.165.824.329.329.165.33v.329l-.165.329.329.33.495.329v1.483l.329.494v1.482l-.165.659v.494l.659.165.494.659.165.988.659 1.318.165.329h.164v.494l1.977.824 1.318.494.988.659.988.824.988.494h.495l1.811-.494 1.153.823.495.494.329-.164.165-.165v1.153l-.494.494-.659 1.153v.494l-.824.165-.329.659-.494.988-.33.659 2.306-.165.33.165.988.165.823.658.33.659.494.989-4.118-.989-2.635.165-1.977 3.294-2.8.494-2.306.165-1.318.33-1.812.164-4.117.494-2.965 1.483-.33.329-4.282 2.471h-.165v-.659l-.329-1.812v-.823l-.165-.165-.165.165v.659l-.494.164-.659.33h-.165l-.494.164-.329.165h-.165l-.165.165-.329.165-2.306.823-.988.33-.165.164-.165.165v.494l.165.165v.494l.329.824v.329l.165.659-.165.494v1.647l-.164.33v.658l-.165.659-.165.494-.164.33-.165.329-.165.33v1.317l.33.824v1.647l.164.165v.165h.33l.494.164h1.647l2.635.165 2.801.165h.658l.824.164h.165l.329.495v.164l.33.494v.165l.164.165h.165v.165h.165l-.165.164.165.494h-.165l-.329.165.164.165v.494l.165.494.494-.165h.165l.165-.164.164.329.33-.329v-.165l.164-.165.33-.164v-.165h-.165v-.165l.165-.329h.165v-.494h.494v.164h.494v-.164l.165-.165h.164v-.494l1.483.164h.164v-.658h.165l1.153.329h.494l1.153.329 1.153.165-.164.659v.494l-.165.33-.33.988v.494l-.164.329v.165l-.33.824.165.164.824.165 1.647.494-.165.33v.329l-.165.33v.823l.165.659v1.318l.165.659v.988l-.494-.165h-1.153l-.165.824v.823h-.33l-.164.165h-.165l-.165.165h-.164v.164h-.165l-.33.165-.164.165-.165.165h-.165v.823l-.164.165-.165.329-.494-.164-.494.329h-.165l-.988.494-.495.165-.494.329-.659.165-.164.165h-3.624l-.494-.165h-.165l-.494.165h-.165l-.329.164-.165.165h-.165l-1.153.659v.165h-.823l-1.977.164h-3.623l-.165-.164-.494-.33h-.165l-.165-.164-.164-.165h-.495l-.164.165-.33-.165v-.165l-.164-.165-.824-.988-.165-.165-.164-.164-.165-.33v-.659l.165-.329v-.329l-.165-.165h-1.812l-.165-.165h-.164l-.165-.494v-.165l-.165-.329-.165-.33-.164.165-.165.165-.165.165-.164.164-.165.165h-.494l-1.153.165h-.33l.165.329v.494l-.165.165.33.329h.164v.659l-.494.494v.165l.33.165.164 1.153v.329l-.164.494-.165.495h.165l.164.164v.33h.165v.164h.33v.165l.329.165v.165h-.329l.164.164.659.33.824.164.494.165-.33.165-1.317.165-.824.329-.165.165-.329.659h-.329l-.33-.165-.823-.33h-.165l-.494-.164-.494-.165h-.165l-.165-.165-.329-.164h-.494l-.33-.165-.329-.165-.494-.165-.165-.164h-.329l-.989-.33-.494-.164-.329-.165-.33-.165-.659-.165h-.329v.824l-.165.824v.329l-.165 1.153.165.165-.165 1.153.824.988 1.153 2.8.165.165.329.988.165.659.329.988.165.165v.329h.165v.33l.329.823.165.33v.329l.165.494v.659h.494l1.317.494h.33l.494.165h.329l.989.33v-.495l.494.165h.494l.824.165.823.165h.494l.165.164.824.165.164.165.33.164 1.482.659h.165l.165.165.329.165.329.164.33.33.329.165.494.329.989.824.164.164.495.33.823.823v.165l.988.824v.164l.165.165.988.988.495.494.164.165.824.494.329.165.33.165.164.164.165.165.494.494h.165l.494.659.988.988h.165l.165.165.988.988.824.659.988.659v.165l1.318-1.318.988-1.153.494-.329.165-.165.329-.329v-.165h.165l.165-.165.494-.494.659-.659v-.165h.164l1.318-1.317.165-.165v-.329h.165l.494-1.648v-.164l.164-.494.495-1.483.329-1.153.494-1.318.165-.823.165-.33.494-1.317v-.165l.329-1.153.33-.659v-.165l.164-.658.165-.659.165-.165v-.165l.164-.494v-.165l.495-1.153v-.164l.823.329 1.153.33.494.164 1.483.494h.164v-.164l1.648.494.164.165 1.318.329.494.165h.165l.165.164 1.317.495h.33l.329.164 1.647.494.165.165.659.165.329.165 1.647.494.33.164.329.165.494.33h.165l.494.494.824.988.165.165.494 1.153.164-.165h.33l.165-.165h.329v-.164l.329-.165h.495v-.165h.329v-.165h.165l.494-.164.329-.165.33-.165h.329v-.164h.33v-.165h.494v-.165h.329l.165-.165h.165l.164-.164h4.942v3.953l.494.165.494.658 1.482-.164.495.164.658-.329 1.648-.165h.164l.165.165h.329l.659.165.824.988.165.329-.165 1.318-.165.988-.494.495 1.977.988 1.647 1.153 1.153.659 1.153-.33h.329l2.141.33 2.306 1.647.165.165 2.306 1.482.33.659v.823l-.33 1.318-.494 1.647-.988.989-.494.823-.165.165.165.494.329 1.153 1.977.494.164 1.153.989 1.153.494.988-2.636 1.977-.494.824.33.329.164.494.33.824.164.494.33.165h.494l.659-.165.329-.165.494.165.495.494.164.165.33.164.494-.164.494-.33h.824l.658.165h.824l.494-.329h.494l.33.164.659.33.329.164.165.165h.164l.659.33 1.647.988 1.483 1.153.494.494.659.494.823.988.165.165.33.494.494.165.329.165h1.318l.823.164h.33l.659-.329.823-1.153.659-.824.494-.329.33-.165.164.165h.33l.329.329.33.165h1.812l.494-.165.494-.164.988-.33h.33l1.153-.329h.494l.494.494.659.329.659.165.658.494h.33l.165.33h.164l1.153.659h.165l.165.164h.329l.33-.164.494-.165.164.165h.165l.33.988.329.659v.329l.494.494.165.165.329.165.33.329.329.659.165.494v.494l.165.165v.329l.164.33v.329l.33.165.164.329.659 1.648.165.164v.165l.494 1.153.165.329.165.33.164.165.165.329v.165l.165.329.164.33v.658l.165.495.165.164.165.33.164.164.33.495.494.494.823.659 2.801 3.953v2.306l1.482.164.494.659-.165 1.153.33 1.977.823 1.153h.165l.165.165v.164l.329.824.165.659 1.153 1.153.494.823.165.989.329.823.33.824.494.329.165.33.164-.33.989-1.318h.164l1.318-1.976.329-.33 3.295-1.811.494-.659v-2.142l.823-1.976.33-.824 3.129-2.141 1.483-.659h.165l1.482-.659.824-6.259.164-.165.33-1.647v-.988l.329-2.635-.165-.659v-.33l.165-1.317.165-.33.165-4.777.329-1.811.165-.495-1.318-1.976-.165-1.812-1.153-1.482-.988-1.318-.824-.824.495-1.317v-3.459l.164-1.153.165-.33.494-.823 1.153-.33.165-.165.494-.988.165-.659-.824-1.317-1.812-6.424.494-1.153.824-1.318 1.977-2.471.658-.823.33-.165-.165-.824v-.494l.659-.494.824-.659.494-.659.988-.658-.329-.495-.165-.164-.165-.494-.823-1.153.164-.659v-.824l.824-1.318.165-.164 1.811-.33.659-.164.824-.33 2.141-.823.494-.33.989-1.153h1.153l.988-.494.165-.329.164-.824.824-4.612.165-.165.329-.329zM246.53 189.387l-.495-.165-.494-.165-1.153-.329h-.329l-2.471-.824-1.317-.329-.659-.165-1.812-.165h-.824l-.823-.164h-1.977l-.659-.165h-1.647l-1.482-.165-2.471-.165h-.659l-.823-.164h-1.153l-3.459-.33h-.165l-3.13-.329h-.329l-3.624-.33h-.659l-1.812-.164h-2.141l-.165.494-.164.494v.988h-.824l-2.471-.164h-.823l-.165 2.635-.165.165-.164 1.317-.165 1.483v.165l-.165 1.482-.329 1.647-.165.659-.988 4.118-.989 4.282h-.164l-1.647-.988h-.165l-.165.659-.329.988v.165l-.33.659v1.153l-.329.329h-.165l-.165.165v-.165l-.164-.164-.165-.165h-.329l-.33.165h-1.482l-.165-.165h-.329l-.495-.165-.329-.165h-.165l-.494-.329-.494-.329-.165-.165-.658-.165h-.165l-.494.165-.824.329-.659.165-.494-.824-.494-.823v-.165l-.165-.494v-.494l-.329-.33-.165-.164-.494-.494-.988.658-.165-.329h-1.318l-.823.329h-.165v-.988l-.494.494-.33.494h-.164v-.494l-.824-.659h-.165l-.658-.494v-.329l.329.165.165-.33v-.165l.164-.164-.164-.165.164-.165-.164-.494-.33.165-.329-.33v-.329l-.824.659-.329.165-.494.164-1.153.33-1.318-.165h-.329l-.33-.988-.494-.33h-.659l-.165-.329.165-.659.165-.329v-2.965l-.165.329v.824l-.165.329h-.494l-.164.165h-.33l-.165-.165-.164-.165-.165.165h-.659l-2.471-4.447h-.164l-4.612-2.965-1.318-.824-1.153-.823-.659 1.153-.329.494-.824.165-1.153 1.976-.494.824-.824 2.141-.494.659-1.153.988-.823.659h-.824l-.494.824-1.647.494-.494.494-.33-.824.659-.164.165-.494-.824-1.153-.659-.824.165-1.318.494-.823.659-.659v-.988l-.494-1.153-.659-.989-.329-.659v-1.317l-3.13.164-.823-.494h-.989l-1.647-.659-1.482-.494-.659-1.317-1.812-2.471-.824-1.977-.988-1.976h-.329l-.824-2.306-.165-.165-.164-.824v-1.317l.164-1.153v-1.318l.495-1.812.164-.165.659-1.317h.165l.659-.494 1.812-.824 1.153-.824 1.482-1.317.494-.824.33-.329.164-.989v-.164l.33-1.318.494-1.812.659-3.788.329-2.142-.494-1.811-.824-1.812-.658-.989-.495-.823-1.153-1.318-1.811-1.976v-.165l-1.648-1.153-.329-.33-1.153-1.153-2.306-.494h-.494l-1.153.824-.659.823-.494.33-1.153 1.153-.659.329-1.482.659-.659.824-1.153.164-1.153-.329-1.318-2.306-.165-.494h-.164l-1.153-.824h-.824l-1.318-.659-1.812-.658h-.164v.164l-.165.165-.165.165-.494.164-.823-.164-.824.164-.494.659-.494.33-.659.659-.494.988-.989.329-1.153-.164-1.317-.33h-1.153l-.494.33-.824.329-.988.329-.824.989-.823 1.482-.824.824-.824.988-2.47-2.306-.659-1.318h-.165l-.988-.494-.659-.988-1.318-1.812-.164-1.647-.495-.824h-.494l-.659.165-.658-.329-.165-.165-.165-.988.33-1.483-.165-.165v-.164l-1.318-.33v.165h-.329l-1.318.165-1.153-.659-.824.494h-1.811l-.495.165-.494-.33-.823-.164-.165.329-.494.165-.494.329-.659.494-.33.33-.329.329-.329.33-1.318.988h-.33l-.164.165-.659-.165h-.33l-.164.165-.989.494v.823l-.658.33-.33.659h-.823l-.165.164-.165.165-1.153.824-.494-.659-.494-.33h-.659l-.659-.164-.659-.165-.329-.494-.33-.33-.658-.329-.165-.165-.824-.165h-.329l-.824.165-.329-.494-.33-.165-.494-.659h-.494l-.165.165-.329-.165-.494-.329-.33-.329-.329-.659-1.153-.494-.165-.165-.329-.494-.33-.659-.658-.165-.165-.165-.824-.823-.164-.494-.165-.494-.659-.33v-.659l-.165-.329-.329-.824-.988-.329-.659.165h-2.471l-.329.329-.33.329-.165.165-.329.494-.329.494-.659 1.153.164.165.165.165-.329.988-.824.824v.988l-.329.494-.824.659v.165l-.165.659-.494.329-1.153.165-.494.329-.165.494-.164.33-.494-.165-.165.165h-.659l-.165.164-.329.33h-.165l.33.823v.33l.164.329-.164 3.953-1.153 2.142-.33.329-.659.165h-.329l-.494.165-.165.329-.659 1.318.165.329v.33l.165.494.164.659.165.823v.494l.165.33.329 1.153v.329l-.165.33-.494.494-.659 1.317-.164.33-.494.823-.165.33-.165.494.494 1.812.33.659.823.988.165 1.482-.165 1.318-.329.988-.165.165-1.153.33h-.988l-.165-.165-.494-.494-.824-.165-.164-.329-.165-.33-.329-1.647-1.318-.165-.165-.329-.165-.659-.494-.494-.164-.33-.659.33-.989-.165-1.317-.494-.659 1.318-1.153 1.317H35.86l-.165-.329-.164-.165-.165-.329h-.165l-1.153.659v.164l-1.317-.164-.165.164-1.153.33-.165-.165-.165-.165-.494-.658-.164-.989h-.824l-.329.33-.33.164-.494.165-.494.659-.494.494-.494.494-.33.494-1.482-1.317-1.977-.989-.165-.164-.658-.824-.33.33-1.318.494-.494.164-1.647 1.483.33.494.329.659v.494l.494.824.659.164.165.989.823.658.165.33v.823l.824.824.658.494.33.33.494 1.153.659.823.329.494h.989l.494.33.329.164.659.165.988.494h.165l.165.165.329.494v.988l.824 1.318 1.812 1.647-.659.494-.659.659v.165l-.165.494v.824l3.13 1.812v.823l.164.165.33.329.329.33.33.329.988 1.812 1.318 2.141.164.165.33.329 1.318.33.823-.33.659-.164h.165l.329.164.494.824.165.824v.494l.494 1.482h.165v.824h-.165v.164l-.165.165v.494l-.164.165v1.318l-.165.329-.165.33-.164.164-.165.494v.33h-1.318l-.329-.165-.494.165-.165.165h-.33l-.329.164-.659.165h-.165l-.329.329h-.165v.165h-.164l-.165.165-.33.165h-.329v-.165h-.659l-.165-.165-.164-.165-.33.165h-.164l-.165.165h-.33l-.329.165h-.329l-.33.164h-.165l-.164.165-.165.165-.165.164-.494.33v.165l-.165.164v.165l-.329.165-1.482.659-.824.823-.329.494h-.495l-1.317-.494h-.494l-1.153-.165-1.153-.164-.33.329-.329.494-.824.33h-.165l-1.647 1.317v.165l-.823.494-.659 1.153.329.659.165.494v.824l.329.988-.988.824.33 1.317h.164l1.647.989.165.329v.988l-.329.33-.33.165-.164.164-.495.989-.658.329-.495.988-.329.659-1.482 1.153-.33.824-.329.494.988.823 2.141 1.812-.494.824-.329.329-1.153 1.318-.989.988-.164.165-1.812 2.635-.659 1.153-1.318.659-.164.659v.33L10 236.66l.165.494.494.823 1.482-.329 1.647-.659.824-.824h1.647l1.483 1.153.658.495-.164 1.811v.165l.164 1.153v.988l-.494 1.648.659 2.635.33.329.329.165.329 1.812.495.824.329.494-.329 3.294v.988l-.165.165-.494 1.318-.33.988-.164.659.494.659-.165.329v.33l-.329.329v.329l-.33 3.624-.329 1.483v.658l-1.318 1.812-.165.165-.329.659.823 2.471v.658l.165.495v.494l-.165.494-.988 1.976v.165l.33 1.153.988 1.318.165.165 1.153.329.823.494.824.33.329 1.482-.165 2.8 2.306 2.471h.495l.658-.165 1.648-.165 2.141-.164 1.153-.989.659-.658.659.164h.494l.494.33.165.164h.164l.659.165 1.318.988.494.495.494 1.482h.659l.824.329h1.811v2.801l-.164 2.306-1.483 3.623v.659l-.164.33 1.647.329.494.329 1.318.495h.164l.989-.33 1.976-.659.988-.988.659.824h3.459l1.318-.165.494-.33h.165l1.318-1.976 4.282-.165.494-.329.33-1.812h.494l.165-.165.164-.329.33-1.153-.165-.989 1.812-.823.823-.988 1.648.988.988.165.494-.165.329-.165.659.33.494.329 1.153-.329.659.329v2.965l.165.659.165.494h.329l.165.165.329-.33.659-.494 2.471-1.647h.165v-.165l1.647-.988.329-.494.824 1.153-.165 2.47 2.471-.823.164-.659v-.165l.495-1.153.658-1.482h.165v-.165l.824-1.482.494-.165.823-.329 2.142-.165h.659l.329.165h.329l.33.164.329.659.494.494.989 1.483.329.494.165.329.659.659.164.33h.165l.165.329v.165l.165.164v.165l.164.33h.33l.329-.165v-.165l.659-.659.165-.164h.329l.494-.33h2.306l.33-.165.659-.164.988-.33.659-.329h.164l.495-.165h.164l.33-.165.164.165.824.33.494.494.494.329.33.33.659.658.988.824.165.165.164.164h.165l.494.165h.659l.329.165.824-.165h.329l.495.165v-.165h1.317l.165.165h.659v.165h.165l.329.164h.329l.165.165h1.153l.33.165h.329l.165.164.659.165h.329l.988.33h.659l.33.164.329-.164h.165l.329-.165h.988l.165.165.165.164.494.165h.165l.329-.494.165-.33.165-.329.164-.494v-.165l.165-.494v-.494l-.165-.659-.164-.165-.33-.494-.165-.165v-3.294l.659-1.812h.989v.494l.164.165v.165h.165l.165.165.164.329-.164.329-.165.33-.329.329-.165.33-.165.164.165.165.165.33.164.164v.165l.165.165.329.329.33.659.823 1.318.165.329.165.33 1.318 1.317.494.494.164-.164v-.824l-.164-.494v-.824l.164.165v.165l.659.494 1.153.659.494.329.495.165.658.329.33.165.165.165h.164l.165.165.165.329h.164v.165h.33l.494.164.329.165.165.33.165.494.165.329.164.165h.659l.165.165h.165l1.811.823.989.988.164.33.659.823.659.659.494.494 2.306 1.153.659.659.33.494.164.165.989.824v.164l.329.659.329.659.165.165v.165l.33.494.658.988v.165l.33.659.165.823.164.165.33.659.164.329.33.494v.494l.165.659.494.33.329.329.824.659.329.494.165 1.318.494.659.165.494-.165 1.482.494.33h.165l2.141.164.988.33h.824l.824-.33h.494l2.965.989.823-.165.33.165v.823l.164.824v.494l-.659.329-.164.989-.165.329.165.165.329.659v.329h.659l.494.33v.988l-.165.988.33.824h.165l.164.164.165.165.165.659v.329l-.33.659.494.33.33.164.988.33h.824l.659 1.153-.165 1.812v1.482l-.165.659-.165.165-.329.988-.165.329h.165l.329.33.165.165.33.823-.165.494v.494l.165.165.658.659.33 1.482h.165l.329.165-.165.33v.823l1.318 1.483.824.988.329.329.494.33.659.494h.165l.659.494.164 1.153v.329l.33.165v2.471l2.47-1.647 1.648-.165 2.141-.165 1.647-.164h1.812l4.612-1.648h.329l4.612-4.447.989-1.812 1.153-2.306.988-1.482 1.647-2.141v-.165l1.482-2.141 5.107-7.413 2.306-1.647 2.141-1.317 1.647-1.153 1.812-2.471 1.153-1.483h-.33v-1.153l-.659-1.647-1.152-2.635-1.153-4.942.164-1.811h3.295l.823.164.988-.329.33-.494.165-.165v-.494l.164-.494-.164-1.153-.165-.659v-.988l-.33-.33v-.165l-.658-1.811-.165-.165.659-2.306-.33-2.636-.329-.494-.824-2.8.33-.165.329-.164.494-.33 1.153-.494 1.153-1.153 1.812.165 1.318.165.164-.659.33-.33v-.659h.165l.494-.329.165-.329v-.495l-.33-.164v-.165l.165-.165v-1.482h.165v-.33l.164-.329v-.659h.165l.165-.165h.329l.165-.164h.823l.33-.165-.165-.165h.494l.165-.164.165.164.164-.164h.165l.165-.165v-.165h.659l.164-.165h.659l.165.165h.165l.164.165v.165h.824l.165-.165h.988l.165.165h.329l.494-.33.33-.165h.658l-.164-.164-.494-.659v-.165l-.165-.165v-1.482l.329-.659.165-.494v-.494l.329-.494v-.659l.165-.165.494-.659.495-.659.494-.494.988-.988.659-.494.823-.33.165-.164.33-.33.164-.494v-.494l.165-.659.165-.165v-.329h-.165v-.165l-.165-.164h.165l-.165-.165v-1.318l.165-.165v-.494l-.165-.164v-.495l-.164-.164v-.165l-.165-.165v-.164h-.165v-.165h-.165v-.33l-.164-.164-.165-.165v-.165l-.165-.164-.165-.165-.658-.988-.165-.165h-.165v-.165l-.329-.823-.165-3.789 3.294-3.953 1.647-1.977 1.318-1.482.33-.329 1.153-1.318.659-.659.329-.494.329-.33.989-.988.164-.494.495-1.812-.989-.659.165-.659h2.965v-7.247l-.494-.659-.165-.329.165-4.118v-.165l-.494-.329-1.318-.824-.659-.659-.659-.494-.823-.823-.33-.495-.165-.164-.164-.494-.33-.989v-.164l.33-1.318.164-.494.165-.824v-.659l-.165-.659v-.164l-.164-.659-.33-.659v-.165l-.494-.823-.329-.824-.165-.494-.165-.165v-.164l-.165-.33v-3.129l-.164-.824.164-.494v-.33l.165-.329.494-.659.165-.165.659-1.153.165-.164.164-.494v-.33l.165-.165.165-.329.823-.988.165-.33.824-.823.164-.33.33-.329.494-.494.165-.165 1.153-.988.164-.165.659-.659.494-.165.824-.329.329-.165.165-.164.33-.165.329-.33h.329l.33.165h2.8l.494.165.659.494.494.165.33.164h.658l.33-.329.329-.494.165-.165.165-.329.164-.33.165-.164.165-.33.164-.165v-.329l-.164-.329-.165-.33v-.988l.165-.494.164-.659v-1.318l.165-1.318v-.658l.165-.659.165-1.483.329-.988.165-.165v-.164z" style="fill:#9f9f9f;stroke:#fff;stroke-miterlimit:10"/><path d="m308.792 273.226-.165-1.482.165-3.295-.33-.658-.494-.495h-.329l-.165-.164-.329-1.483.329-.164-.165-.33.165-.165v-.164l-.824-.33v-.329l.495-.494-.165-.659-.494-.659.164-.329v-.165l-.164-1.647.659-.33 1.317-.823-.329-.33v-.659l-.165-.164-.165-.165v-.824l-.164-.164v-.659l-.165-.165v-.659l.165-.164v-.165l-.165-.165-.165-.165-.164-.329h-.165l-.165-.165-.329-.164h-.165l-.165-.33v-.494l-.165-.494-.164-.165h-.165v-.988l-.165-.33-.164-.164v-.165l-.165-.165-.165-.164-.165-.165-.164-.165-.494-.329-.33-.33h-.165v-.164h-.494l-.329-.165h-.659l-.988-.165-.33.165-.988-.494-.659-.33v-.329h-.165l-.164-.494v-.33l-.165-.329v-.988l-.165-.495.659-.164v-1.647l.165-.33v-.165h.165l.329-.658.165-.33.329-.165v-.164l.165-.33.165-.329.164-.33v-.164l-.164-.33v.165h-.165l-1.483.165-1.647.329-.164-.659-.165-.164-.165-.33-.165-.165-.164-.164v-.165l-.165-.329v-.33l-.165-.494-.164-.329-.165-.33v-.165h.329v-2.47l.165-2.306h-.659l-.329.494-.659-.165v-.494h-.824l.165-.329v-.659l.165-.33v-.494l.164-.329v-.33l.33-1.647h-.824l-.329.165-.165-.659h-.329l-.33.165h-2.306l-.988.164h-3.129l-.824.165h-4.612l-1.153.165h-.988l-.495.165-1.317.164-.494.165-.659.165-1.153.164h-.33l-2.141.495-.659.164-.823.165-.659.165-.989.164-.329.165-.329.165-.824.165-.494.329-.659.165-.659.494-1.153.659-.494.329-2.635 1.483-1.648.988-.164.165-.165.164-4.447 2.636-.494.164-.495.33-1.317.823-1.977 1.153-.823-1.317-.989-1.647-.164-.495-.165.165-.494.165-.165.165-.659.164h-.165v-.823l-.164-.165-.659-.165-.33-.164v-.659l-.329-.165v-.165l.165-1.153v-1.317h-.165l-1.482-.165-.494-.659-1.318-.329-1.153-.165-1.812-.33h-.494l-.33-.164-.658-.165-.33-.165-1.482-.494-.165-.165-.33-.494-.658-.329-.165 4.118.165.329.494.659v7.247h-2.965l-.165.659.989.659-.495 1.812-.164.494-.989.988-.329.33-.329.494-.659.659-1.153 1.318-.33.329-1.318 1.482-1.647 1.977-3.294 3.953.165 3.789.329.823v.165h.165l.165.165.658.988.165.165.165.164v.165l.165.165.164.164v.33h.165v.165h.165v.164l.165.165v.165l.164.164v.495l.165.164v.494l-.165.165v1.318l.165.165h-.165l.165.164v.165h.165v.329l-.165.165-.165.659v.494l-.164.494-.33.33-.165.164-.823.33-.659.494-.988.988-.494.494-.495.659-.494.659-.165.165v.659l-.329.494v.494l-.165.494-.329.659v1.482l.165.165v.165l.494.659.164.164h-.658l-.33.165-.494.33h-.329l-.165-.165h-.988l-.165.165h-.824v-.165l-.164-.165h-.165l-.165-.165h-.659l-.164.165h-.659v.165l-.165.165h-.165l-.164.164-.165-.164-.165.164h-.494l.165.165-.33.165h-.823l-.165.164h-.329l-.165.165h-.165v.659l-.164.329v.33h-.165v1.482l-.165.165v.165l.33.164v.495l-.165.329-.494.329h-.165v.659l-.33.33-.164.659-1.318-.165-1.812-.165-1.153 1.153-1.153.494-.494.33-.329.164-.33.165.824 2.8.329.494.33 2.636-.659 2.306.165.165.658 1.811v.165l.33.33v.988l.165.659.164 1.153-.164.494v.494l-.165.165-.33.494-.988.329-.823-.164h-3.295l-.164 1.811 1.153 4.942 1.152 2.635.659 1.647v1.153h1.153l.33-1.482.494-.659 1.318-1.812.659-.988.823.824h.165l.165.164v.165l.164.494v.33l2.141 1.811.33.33.165.165.164.164.33.659v.165l.165.165v.164l.329.165h.659l.329.165.494.329.165.494v.33l.329.329.165-.165.165-.164.165-.33.164-.329h.165v-.165l.33-.165.494-.329.329-.165.165-.164.659-.659.164-.165.494-.659.165-.165h.165l.165-.164.164-.165h.165l.824-.329.823.164.33.33.329.494.659.165.165.164.164.165v.165l.33.329h.165l.329.494.329.165.33.165.494.659.494.658.165.659v.165l.329-.824.33-.329.659-.494.494-.33h.164l.495-.164h.329l.165-.165.164-.165 4.283-2.47.988-.495.494-.164 5.93-3.295.824-.494 3.953-2.141.329-.165.494-.164.495-.495.329-.823v-.988l.494-.659.165-.494v-.165l.164-.824.33-.659v-.164l.165-.659v-.824l-.165-.659 3.129-1.811 4.448.658.494-.329.494-.165h.659l.494-.164h.659l.494-.495.494-.494.494-.494.659-.329.494.164h.33l.164.165h1.154l1.152-.329 1.154-.165.494-.165.988-.494.494-.165.988-.164.494-.33.33-.494 3.788-1.647.165-.165.329-.164 2.965-1.318h.495l2.8-.33.658.659h.33l.165-.164.823-.33h.33l1.317-2.141 2.142.165.494.329.494-.165.494.33.988-.494h.824l-.494-.659-2.306-2.8 1.317-1.483 1.812.988.33-1.153-.659-.164-.165-.33-.823-.494v-.494h.164l-.164-.329h.329l.33-.165 1.647-.494 2.964.659v-2.142l.165-.494-.165-1.647.495-.165.823-1.647.824.33.329.329.659.329.824.495.659.329.823.329.329.165.824.33 1.482.823.495.33.494.164.659.494.329.165.494.165.988.329h.165v.165l.33 1.482 1.976.165-.165-1.153.33-.988.494-.33.494-.494.33-.494h1.482l.494-.823v-.165l.165-.165v-.165l.165-.164-.165-.33-.33-.494v-.165l-.164-.494v-.494l.329-.329.165-.494.165-.165v-.165l.164-.329v-1.153z" style="fill:#9f9f9f;stroke:#fff;stroke-miterlimit:10"/><path d="m353.594 269.108.165-.329-1.318-1.153.165-.988-.33-.495-.165-.329-.494-.329H350.3l-.495.164v-.164h-.164l-.165-.33-.165-1.812-.659-.329h-.494l-.494.165-.329.164h-.33v.165h-.329v-.165h-.165v.33h-.823v.329l-1.153.659-.33.165h-.988l-.165-.165h-.329l-.824-.824-.165-.164h-.658l-.165-1.483v-1.812l-.165.165h-.494v-.659l-.165-1.317v-.989h-.164l-.659.165h-.659l-.165-.329v-1.318h-1.482v-.659l-.165-.165v-.988h-.988l-.165.165h-.329l-1.318.164h-1.647v.165h-1.483l-1.317.165h-.165l-1.318.165-1.482.164h-1.483v.165h-.659l-.329-.165v-.164h-.165l-.823-.824h-.165l-.329-.329-.495-.33-.164-.165-.165-.329-.165-.165-.329-.494-.165-.165-.494-.658-.329-.495-.495-.494-.329-.494-.659-.988v-.165l.659-.494h.165l.164-.165.33-.164.165-.165.164-.165.165-.165.659-.329h.659l.164-.329.165-.165v-.33h.165l.165-.164h.494l.164-.33h.165l.165-.164.165-.165.329-.165.494-.165v-.164h.165l.165.164h.329l.494.165v-.494l.165-.494.165-.494.164-.824.165-.329v-.165l.165-.824.164-.329.165-.824.165-.494.165-.329v-.659l.164-.165v-.329l.33-.494v-.165l.329-1.153.165-.659v-.165l.165-.164v-.165l.164-.165.165-.494.329-.659v-.164l.165-.33h.165l.165-.494h.164l.165-.329v-.165h-.165l-.988-.494h-.165l-.329-.165-.494-.329v-.165h-.165l-.329-.33-.165-.164-.165-.165v-.165l-.329-.659-.33-.494-.164-.329-.165-.33-.165-.329v-.165l-.165-.164-.164-.495-.33-.494-.164-.164-.165-.165-.494-.33h-1.153l-.165.165h-1.977l-.823-.165-.494.165-.494.165h-.33l-.329.329h-.33l-.329.165h-.165v.165l-1.318.494v.165h-.164l.164.164.165.494h-.165l-.494.33-.823.329-.165.659-.659.494-.659.494-.988.165h-.165l-1.317.33-.824.494-.494.329-.824.494-.823.494-.165.165-.329.165-.494.329-.659.33v.164l-.659.33h-.165l-.494.329.494.989.329.329.824 1.318.494.988.824.988.659 1.153-.33.165-.329.165-.33.164.494.659-.494.33h-.164l-.165.164-.329.33h-.33l-.329.165-.495.164-.329.165v.165l-.494.329-.33.33-.329 1.317-.165.33-.164.164-1.812.824v.494l.164.33.165.494.165.494.329.165h.494v.164h.165l.33.33.494.329.164.165.165.165.165.164.165.165v.165l.164.164.165.33v.988h.165l.164.165.165.494v.494l.165.33h.165l.329.164.165.165h.165l.164.329.165.165.165.165v.165l-.165.164v.659l.165.165v.659l.164.164v.824l.165.165.165.164v.659l.329.33-1.317.823-.659.33.164 1.647v.165l-.164.329.494.659.165.659-.495.494v.329l.824.33v.164l-.165.165.165.33-.329.164.329 1.483.165.164h.329l.494.495.33.658-.165 3.295.165 1.482.164.824v1.153l-.164.329v.165l-.165.165-.165.494-.329.329v.494l.164.494v.165l.33.494.165.33-.165.164v.165l-.165.165v.165l-.494.823h-1.482l-.33.494-.494.494-.494.33-.33.988.165 1.153-1.976-.165-.33-1.482v-.165h-.165l-.988-.329-.494-.165-.329-.165-.659-.494-.494-.164-.495-.33-1.482-.823-.824-.33-.329-.165-.823-.329-.659-.329-.824-.495-.659-.329-.329-.329-.824-.33-.823 1.647-.495.165.165 1.647-.165.494v2.142l-2.964-.659-1.647.494-.33.165h-.329l.164.329h-.164v.494l.823.494.165.33.659.164-.33 1.153-1.812-.988-1.317 1.483 2.306 2.8.494.659h-.824l-.988.494-.494-.33-.494.165-.494-.329-2.142-.165-1.317 2.141h-.33l-.823.33-.165.164h-.33l-.658-.659-2.8.33h-.495l-2.965 1.318-.329.164-.165.165-3.788 1.647-.33.494-.494.33-.988.164-.494.165-.988.494-.494.165-1.154.165-1.152.329h-1.154l-.164-.165h-.33l-.494-.164-.659.329-.494.494-.494.494-.494.495h-.659l-.494.164h-.659l-.494.165-.494.329-4.448-.658-3.129 1.811.165.659v.824l-.165.659v.164l-.33.659-.164.824v.165l-.165.494-.494.659v.988l-.329.823-.495.495-.494.164-.329.165-3.953 2.141-.824.494-5.93 3.295-.494.164-.988.495-4.283 2.47-.164.165-.165.165h-.329l-.495.164h-.164l-.494.33-.659.494-.33.329-.329.824v-.165l-.165-.659-.494-.658-.494-.659-.33-.165-.329-.165-.329-.494h-.165l-.33-.329v-.165l-.164-.165-.165-.164-.659-.165-.329-.494-.33-.33-.823-.164-.824.329h-.165l-.164.165-.165.164h-.165l-.165.165-.494.659-.164.165-.659.659-.165.164-.329.165-.494.329-.33.165v.165h-.165l-.164.329-.165.33-.165.164-.165.165-.329-.329v-.33l-.165-.494-.494-.329-.329-.165h-.659l-.329-.165v-.164l-.165-.165v-.165l-.33-.659-.164-.164-.165-.165-.33-.33-2.141-1.811v-.33l-.164-.494v-.165l-.165-.164h-.165l-.823-.824-.659.988-1.318 1.812-.494.659-.33 1.482h-.823l-1.153 1.483-1.812 2.471-1.647 1.153-2.141 1.317-2.306 1.647-5.107 7.413-1.482 2.141v.165l-1.647 2.141-.988 1.482-1.153 2.306-.989 1.812-4.612 4.447h-.329l-4.612 1.648h-1.812l-1.647.164-2.141.165-1.648.165-2.47 1.647-1.483.988-.823.659-.165.329-.824.33-.658.329-.824.33-1.153.494h-1.318l-2.306-1.483-.988-.164-1.153-.165h-3.788l-1.483.329-.329.33-.989.659-.329.164-1.647.989-1.318 1.317-.659 1.483-.164 1.153.329.329.165.165.329.329.33.165.658.33.824.988.824.823.823 1.812.165.33.823 2.47 1.812-2.8 1.153-.988 1.812-1.482 2.141-.495 1.648-.329.494-.988 2.47-1.318h.989l1.812.165.164.164.165.824.165.824.164.329-.164.824-.165 1.153-.494 1.153-1.318 2.8-.165.494-.329 2.471v.494l.165.164v.495l1.153.658.329.659.165.33.329.823.824.494.329.165.494.165 2.801.494h.164l1.483.659 1.976.823.494.165.824.165h2.471l1.976-.494.33-.33.494-.659 1.976-.329.495-.659.494-.494h.659l1.152-.494.659-.33.495-.164v-.989l.658-.329.33-.329.823-.659h.989l.823-.824 2.471-1.153.659-1.318.165-.988.164-.329.494-.165.165.329.659.33h1.482l.494-.33.659-.658.165-.495h.33l.494-.164.988.659.165.164v.494l-.165.165.823 1.153v.165l.33.329.494.165.494-.329.165-.165h.494l1.647 1.482 1.153.824.659.494.824 1.318.164.164.494.495.495.823v.165l.329.329.494 1.483v.164l.494 2.636h6.424l1.483.494.494-.165 1.482-1.317.824.494h.329l.165.164h.165l.494.165.165-.659.658-.494.165-.165h.494l.659.165.33.165 1.317.659.33-.33h.329l.165.165h.329l1.483.494h.494l.165-.659v-.164l.823-2.471v-.165l.165-.823.494-.824.165-.329.494-.989.659-1.153.988-2.635v-.824l1.153-.659 1.153-.658 1.482-1.153.989-.659.988-.659h.824l.494-.165.494.494h2.471l.494-.329.988-.494 1.647-.494.659-.165 1.318-.165.164-.165.824-.494h.165v-.164l1.317-.33.824-2.635 7.247.823.659-2.141.659-.659 2.141-1.482.495-.494h.164l.165-.33.494-1.318.988-1.153.495-.494v-1.482l.164-.494.824-.33.823-.329.824-.659 2.141-.824.824-.164.988-.33 1.153-1.647.824-2.306.164-.988.165-.33.33-.494.329-.823 2.141-.494 1.647.329.989-.824h1.317l.989.824.658.494.165.494.494 1.153h.165l1.812.989.494.658.165.165.988.494 1.153-1.153 2.471.824 1.812 1.482 1.482-.164.988.494 1.812-2.142.165-.164.494-.165.988-.659 1.977-.329.165-.33.164-.494.659-.165h.494l1.647-.494.495-.988.494-.165 1.976-.659 2.471-1.976.165-.165 2.141-1.976h.165l.494.494 1.812 1.317.823.165h.33l5.106 3.13 1.647-.989 1.647-1.976.824-.988 4.941-.495.824.495v.164l.164-.164h.165l.494-.165h1.153l.165-.165h.494l.165-.165.165-.164.329-.33.165-.164h.164l.165-.165h.165l.494-.165h.659l.494-.165h.659l.165-.164h.329v-.165l.329-.165.495-.329.164-.165.165-.165.165-.164v-1.153l.164-.33.165-.164.165-.495.165-.164.164-.165.165-.165.165-.164h.164l.824-.659.329-.165v-.165l.824-.988.329-.329.165-.165.33-.33.329-.658.494-.659v-.165l.165-.494v-.659l.165-.165v-.164l-.165-.165v-.33h.165l.658-.164h.659l.165-.165.329-.165 1.153-.659h.165l.33-.164.658-.165.659-.329.33-.165h.164l.165-.165.165-.165.165-.164.329-.33.659-.494.494-.329 1.153-.33.494-.164h1.483v-.989l.658-.988v-.988l.165-.659.165-.494.494-.494.165-.33.164-.494v-1.482l.165-.33v-.329l.33-.824v-.165l-.33-.494-.329-.494-.33-.329-.494-.165-.494-.165-1.153-.329h-.165v-.165l-.164-.329v-.33l-.495-.659h-.164l-.165-.658v-1.318l.329-.494v-.165l-.164-.329.164-.165-.164-.165v-.494l-.33-.329-.164-.495-.165-.658-.165-.165-.659-.659-1.976-2.141-.494-.659-.165-.494v-.165l-.494-.659v-.494l.329-1.647.165-1.647v-1.153l-.165-.33-.823-.659-.33-.823v-.659l-.165-.494v-1.318l.165-.165-.165-.988v-.329l-.164-.494.164-.659v-.824h-.164v-.165l-1.153-1.317 2.47-.989.659-.329h.165l.494-.165 1.153-.164.988-.165.824-.165 1.647-.988.494-.659v-1.153l.33-.494.659-.165.823-1.318v-.164l.33-.494 1.317-.989.165-.164.165-.165.659-.824.329-.329 1.812-1.647h.165v-.165l-.165-1.153z" style="fill:#9f9f9f;stroke:#fff;stroke-miterlimit:10"/><path d="m443.693 283.933-.165-.33-.494-.329-.33-.824-.329-.823-.165-.989-.494-.823-1.153-1.153-.165-.659-.329-.824v-.164l-.165-.165h-.165l-.823-1.153-.33-1.977.165-1.153-.494-.659-1.482-.164v-2.306l-2.801-3.953-.823-.659-.494-.494-.33-.495-.164-.164-.165-.33-.165-.164-.165-.495v-.658l-.164-.33-.165-.329v-.165l-.165-.329-.164-.165-.165-.33-.165-.329-.494-1.153v-.165l-.165-.164-.659-1.648-.164-.329-.33-.165v-.329l-.164-.33v-.329l-.165-.165v-.494l-.165-.494-.329-.659-.33-.329-.329-.165-.165-.165-.494-.494v-.329l-.329-.659-.33-.988h-.165l-.164-.165-.494.165-.33.164h-.329l-.165-.164h-.165l-1.153-.659h-.164l-.165-.33h-.33l-.658-.494-.659-.165-.659-.329-.494-.494h-.494l-1.153.329h-.33l-.988.33-.494.164-.494.165h-1.812l-.33-.165-.329-.329h-.33l-.164-.165-.33.165-.494.329-.659.824-.823 1.153-.659.329h-.33l-.823-.164h-1.318l-.329-.165-.494-.165-.33-.494-.165-.165-.823-.988-.659-.494-.494-.494-1.483-1.153-1.647-.988-.659-.33h-.164l-.165-.165-.329-.164-.659-.33-.33-.164h-.494l-.494.329h-.824l-.658-.165h-.824l-.494.33-.494.164-.33-.164-.164-.165-.495-.494-.494-.165-.329.165-.659.165h-.494l-.33-.165-.164-.494-.33-.824-.164-.494-.33-.329.494-.824 2.636-1.977-.494-.988-.989-1.153-.164-1.153-1.977-.494-.329-1.153-.165-.494.165-.165.494-.823.988-.989.494-1.647.33-1.318v-.823l-.33-.659-2.306-1.482-.165-.165-2.306-1.647-2.141-.33h-.329l-1.153.33-1.153-.659-1.647-1.153-1.977-.988.494-.495.165-.988.165-1.318-.165-.329-.824-.988-.659-.165h-.329l-.165-.165h-.164l-1.648.165-.658.329-.495-.164-1.482.164-.494-.658-.494-.165v-3.953h-4.942l-.164.164h-.165l-.165.165h-.329v.165h-.494v.165h-.33v.164h-.329l-.33.165-.329.165-.494.164h-.165v.165h-.329v.165h-.495l-.329.165v.164h-.329l-.165.165h-.33l-.164.165-.494-1.153-.165-.165-.824-.988-.494-.494h-.165l-.494-.33-.329-.165-.33-.164-1.647-.494-.329-.165-.659-.165-.165-.165-1.647-.494-.329-.164h-.33l-1.317-.495-.165-.164h-.165l-.494-.165-1.318-.329-.164-.165-1.648-.494v.164h-.164l-1.483-.494-.494-.164-1.153-.33-.823-.329v.164l-.495 1.153v.165l-.164.494v.165l-.165.165-.165.659-.164.658v.165l-.33.659-.329 1.153v.165l-.494 1.317-.165.33-.165.823-.494 1.318-.329 1.153-.495 1.483-.164.494v.164l-.494 1.648h-.165V222l-.165.165-1.318 1.317h-.164v.165l-.659.659-.494.494-.165.165h-.165v.165l-.329.329-.165.165-.494.329-.988 1.153-1.318 1.318.659.659.659.823h.164l.824.989.165.164v.165l.164.165.33-.165.165.329.329.495-.165.164h-1.647l-.494.165h-.988l-.33.165-.494.164h-.165l-.329.165h-.329l-.165.165h-.165l-.329.165h-.165l-.165.329h-.164l-.165.494h-.165l-.165.33v.164l-.329.659-.165.494-.164.165v.165l-.165.164v.165l-.165.659-.329 1.153v.165l-.33.494v.329l-.164.165v.659l-.165.329-.165.494-.165.824-.164.329-.165.824v.165l-.165.329-.164.824-.165.494-.165.494v.494l-.494-.165h-.329l-.165-.164h-.165v.164l-.494.165-.329.165-.165.165-.165.164h-.165l-.164.33h-.494l-.165.164h-.165v.33l-.165.165-.164.329h-.659l-.659.329-.165.165-.164.165-.165.165-.33.164-.164.165h-.165l-.659.494v.165l.659.988.329.494.495.494.329.495.494.658.165.165.329.494.165.165.165.329.164.165.495.33.329.329h.165l.823.824h.165v.164l.329.165h.659v-.165h1.483l1.482-.164 1.318-.165h.165l1.317-.165h1.483v-.165h1.647l1.318-.164h.329l.165-.165h.988v.988l.165.165v.659h1.482v1.318l.165.329h.659l.659-.165h.164v.989l.165 1.317v.659h.494l.165-.165v1.812l.165 1.483h.658l.165.164.824.824h.329l.165.165h.988l.33-.165 1.153-.659v-.329h.823v-.33h.165v.165h.329v-.165h.33l.329-.164.494-.165h.494l.659.329.165 1.812.165.33h.164v.164l.495-.164h1.317l.494.329.165.329.33.495-.165.988 1.318 1.153-.165.329v.165l.165 1.153v.165h-.165l-1.812 1.647-.329.329-.659.824-.165.165-.165.164-1.317.989-.33.494v.164l-.823 1.318-.659.165-.33.494v1.153l-.494.659-1.647.988-.824.165-.988.165-1.153.164-.494.165h-.165l-.659.329-2.47.989 1.153 1.317v.165h.164v.824l-.164.659.164.494v.329l.165.988-.165.165v1.318l.165.494v.659l.33.823.823.659.165.33v1.153l-.165 1.647-.329 1.647v.494l.494.659v.165l.165.494.494.659 1.976 2.141.659.659.165.165.165.658.164.495.33.329v.494l.164.165-.164.165.164.329v.165l-.329.494v1.318l.165.658h.164l.495.659v.33l.164.329v.165h.165l1.153.329.494.165.494.165.33.329.329.494.33.494v.165l-.33.824v.329l-.165.33v1.482l-.164.494-.165.33-.494.494-.165.494-.165.659v.988l-.658.988v.989h.823l.33.164h.658l.33.165.329.494.33.494h.164l.33.33.329.164.33.989.659.823.494.33.164.164.33.33.165.329.329.494.329.659.165.165-.329.988-.165.494v.659l.329.494.165.495.165.494v.164l.329.33.494.329v.165l.165.329.494.495v1.482l.165.165.165.329.659.33.164.164.494.33.165.329v1.153l.165.165v.494l.165.165v.164l.494.165h.164l.165.165h.33l.329.329.165.494.164.165.165.165.33.329.164.165.494.329.495.165v.165h.164l.494.165.824.494.165.164.164.165h.33l.165.165h.329v.165l.165.329v1.318l-.165.164v.33l-.165.165v2.635h1.153l1.318.165h.659v-.165l.165.165h1.647l.329.164h.659l.165.165h.329l.494.165h1.483l.329.165.494.164.33.165.659.165h.494l.164.164h.165l.33.165.164.33.165.329.165.165.164.329.165.165h.33l.329-.33.165-.164.164-.165.165-.165h.165l.659-.494.164-.165h.165v.165h.988l.33.165.494.329h.165l1.153.659h1.317l.165-.165h.165l.165-.164h.658l.165.164h.165l.329.165h.494l.33-.329.165-.165h.329l.494.165.494-.165h.33l.659-.165v-.164l.164-.165.165-.33v-.164l.494-.659.165-.165h.988v-.165h.165l.165-.164.329-.33v-.164l.329-.165.33-.33.329-.329h.165l.165-.165.164-.164.33-.33v-.165l.329-.329.494-.659.165-.329.165-.494h.165l.164-.33h.165l.165-.329v-.165l.494-.659v-.165l.329-.329v-.165h.165l.165-.164.329-.165.33-.33.164-.164h.165l.165-.165h.164l.495.329h.164v-.658l.165-.165v-.33l.165-.329-.33-.824-.329-.494v-.164l-.494-.989-.33-.494-.164-.494v-.165l.164-.659h.165l.659-.494.165-.494h.164l.165-.329v-.165l.494-.659.165-.329v-.33l.659-.988v-.165h.164l.495-.329.164-.165.165-.165.329-.658.33-.33.494-.659.988-.988h.989l.329-.329.494-.495.494-.329.165-.329.329-.33.165-.165.494-.329.33-.329.329-.33.165-.165h.329l.824-.164h.165l.329-.33h.165l.164-.164h.165l.33-.165.658-.494 1.648-.165h.494l1.317.329.165-.329.165-.329.329-.33h.33v-.165l.164-.164.495-.33.164-.164h.33l.164-.165.165-.165h1.483l.164-.165h.165l.165.165h.164l.165.165h1.153l.165-.165h.494l.165-.165h.823v.165h.33l.329.165h.659l.165-.165h.329l.494-.329.165-.165.165-.165h.164l.165-.164.33-.165.164-.165.494-.165.165-.164.33-.165.329-.165h.165l.329-.164.165-.165.165-.165h.164l.33-.165h1.812l.164-.164h.33l.329-.165.165-.165.165-.164h.658l.165-.165h.494l.33-.165h.164l.33-.165h.329v-.164h.165l.165-.165v-.165l.164-.164.165-.165.165-.165h.165v-.165l.164-.164v-2.306h.165v-.824l-.165-.165v-.329l-.164-.165v-.164l-.165-.33v-.329l-.165-.165v-.494l-.165-.165v-.494l-.164-.165v-1.317l.164-.165v-.659l.165-.165v-.164l.165-.165h.165v-.165h.164l.165-.165.165-.164.164-.165-1.647-2.8-.329-1.153-.165-.165-.659-1.482v-.659l-.164-.659.329-.659 1.482-1.318h1.153l.33-2.635.329-.988-.164-.33-.495-.164.659-1.153h.659l.659-.495 1.812-.164 1.647-.33 1.482-.494 4.283-.494v-2.635z" style="fill:#9f9f9f;stroke:#fff;stroke-miterlimit:10"/><path d="m335.311 231.553-.165-.329-.33.165-.164-.165v-.165l-.165-.164-.824-.989h-.164l-.659-.823-.659-.659v-.165l-.988-.659-.824-.659-.988-.988-.165-.165h-.165l-.988-.988-.494-.659h-.165l-.494-.494-.165-.165-.164-.164-.33-.165-.329-.165-.824-.494-.164-.165-.495-.494-.988-.988-.165-.165v-.164l-.988-.824v-.165l-.823-.823-.495-.33-.164-.164-.989-.824-.494-.329-.329-.165-.33-.33-.329-.164-.329-.165-.165-.165h-.165l-1.482-.659-.33-.164-.164-.165-.824-.165-.165-.164h-.494l-.823-.165-.824-.165h-.494l-.494-.165v.495l-.989-.33h-.329l-.494-.165h-.33l-1.317-.494h-.494v-.659l-.165-.494v-.329l-.165-.33-.329-.823v-.33h-.165v-.329l-.165-.165-.329-.988-.165-.659-.329-.988-.165-.165-1.153-2.8-.824-.988.165-1.153-.165-.165-.823-.494-.33-.165-1.153-.494-.658-.165-1.153-.329h-.165l-.494-.165h-.165l-.824-.165h-.823l-1.153-.164h-.494l-.824.164-1.482.165.165-.988v-1.153l-2.142-.165-1.318-.165h-1.317l-.989-.164h-1.976l-1.153-.165h-1.647v-.165h-2.306l-.494-.164h-1.483l-1.153-.165h-2.306l-.659-.165h-.494l-.329-.165h-.33l-.329-.164h-.165l-.329-.165h-.33l-.329-.165h-.33l-.988-.329h-.164l-.495-.165-1.482-.494-1.647-.329-1.483-.495-.494-.164-.988-.165v-.165l-.824-.164-1.647-.495-1.647-.494-.659-.164h-.164l-1.483-.495-1.647-.494-1.483-.329-1.482-.33v-.164l.329-.824h-.164v-.165h-.494l-.165-.164v-.33l-.165-.164v-.165h-.164v-.165h-.33l-.165-.165-.164-.164-.495-.165-.164-.329-.824-.33-.329-.329H249v-.165l-.164.165h-.165l-.329.329h-.824l-.165.494-.329.659v.494l-.165.165-.329.988-.165 1.483-.165.659v.658l-.165 1.318v1.318l-.164.659-.165.494v.988l.165.33.164.329v.329l-.164.165-.165.33-.165.164-.164.33-.165.329-.165.165-.329.494-.33.329h-.658l-.33-.164-.494-.165-.659-.494-.494-.165h-2.8l-.33-.165h-.329l-.329.33-.33.165-.165.164-.329.165-.824.329-.494.165-.659.659-.164.165-1.153.988-.165.165-.494.494-.33.329-.164.33-.824.823-.165.33-.823.988-.165.329-.165.165v.33l-.164.494-.165.164-.659 1.153-.165.165-.494.659-.165.329v.33l-.164.494.164.824v3.129l.165.33v.164l.165.165.165.494.329.824.494.823v.165l.33.659.164.659v.164l.165.659v.659l-.165.824-.164.494-.33 1.318v.164l.33.989.164.494.165.164.33.495.823.823.659.494.659.659 1.318.824.494.329v.165l.658.329.33.494.165.165 1.482.494.33.165.658.165.33.164h.494l1.812.33 1.153.165 1.318.329.494.659 1.482.165h.165v1.317l-.165 1.153v.165l.329.165v.659l.33.164.659.165.164.165v.823h.165l.659-.164.165-.165.494-.165.165-.165.164.495.989 1.647.823 1.317 1.977-1.153 1.317-.823.495-.33.494-.164 4.447-2.636.165-.164.164-.165 1.648-.988 2.635-1.483.494-.329 1.153-.659.659-.494.659-.165.494-.329.824-.165.329-.165.329-.165.989-.164.659-.165.823-.165.659-.164 2.141-.495h.33l1.153-.164.659-.165.494-.165 1.317-.164.495-.165h.988l1.153-.165h4.612l.824-.165h3.129l.988-.164h2.306l.33-.165h.329l.165.659.329-.165h.824l-.33 1.647v.33l-.164.329v.494l-.165.33v.659l-.165.329h.824v.494l.659.165.329-.494h.659l-.165 2.306v2.47h-.329v.165l.165.33.164.329.165.494v.33l.165.329v.165l.164.164.165.165.165.33.165.164.164.659 1.647-.329 1.483-.165h.165v-.165l.164.33v.164l-.164.33-.165.329-.165.33v.164l-.329.165-.165.33-.329.658h-.165v.165l-.165.33v1.647l-.659.164.165.495v.988l.165.329v.33l.164.494h.165v.329l.659.33.988.494.33-.165.988.165h.659l-.165-.494-.165-.494-.164-.33v-.494l1.812-.824.164-.164.165-.33.329-1.317.33-.33.494-.329v-.165l.329-.165.495-.164.329-.165h.33l.329-.33.165-.164h.164l.494-.33-.494-.659.33-.164.329-.165.33-.165-.659-1.153-.824-.988-.494-.988-.824-1.318-.329-.329-.494-.989.494-.329h.165l.659-.33v-.164l.659-.33.494-.329.329-.165.165-.165.823-.494.824-.494.494-.329.824-.494 1.317-.33h.165l.988-.165.659-.494.659-.494.165-.659.823-.329.494-.33h.165l-.165-.494-.164-.164h.164v-.165l1.318-.494v-.165h.165l.329-.165h.33l.329-.329h.33l.494-.165.494-.165.823.165h1.977l.165-.165h1.153l.494.33.165.165.164.164.33.494.164.495.165.164v.165l.165.329.165.33.164.329.33.494.329.659v.165l.165.165.165.164.329.33h.165v.165l.494.329.329.165h.165l.988.494h.165v.165h.165l.329-.165h.165l.165-.165h.329l.329-.165h.165l.494-.164.33-.165h.988l.494-.165h1.647l.165-.164z" style="fill:#9f9f9f;stroke:#fff;stroke-miterlimit:10"/><path d="m273.049 167.809.329-.824.165-.329h-1.318v-1.812l-2.471-1.976-2.965-1.153-.494-.165-.329-.33-.988-1.811 2.635-2.636v-3.294l-.165-2.306-.164-4.612-.165-.659v-2.8l.165-.988.329-.989.165-.659.165-.329.164-.824v-1.647l-.823-.988-.165-1.482v-.165l.165-.165.988-1.812 1.977-2.635.164-.165.494-.329h.165l.494-.33-.165-.164-.494-.659-.823.494v.165l-.824-.495h-.329l-.659-.164h-3.13v-6.259h-7.412l-1.153-.165.165-1.318-.165-.494-.164-.494-.33-.824-.988-2.47h-.494l-1.153.494-1.483.659-2.635.823-1.483.494-.823.33-.494-1.483-.165-.494-.494-.823-.165-.495-.165-.494-.494-.988-.329-.659.659-.329.494-.165-.33-.494-.658-1.483h-.33l-.494.165-.659.33v-.165h-.494l-.824-.165-1.153-.329-.494.164-.988.165h-.165l-.988-.823-1.318-.824-1.153-.824-1.153-.494-.659-.329-.329-.165-.329-.165h-.165l-.33-.164h-.329l-.659-.33h-.329l-.165-.164-.494-.165v.165h-.165l-.165.164v.165h-.164v.494l-.165.165-.329.659v.659l.164.164v.494l.165.33v.659h.165v.494h.164v2.306l-.164.165v.494l-.165.164-.165.33v.165h-.164v.329l-.165.165-.165.164-.165.165h-.164l-.165.165-.165-.165h-.165l-.164-.165h-.33v.165l-.164-.165h-.824l-.165-.164h-.494l-.164.164h-.165v.165h-.165v.165h-.165l-.164-.165-.165-.165h-.165l-.164-.164v-.165h-.989v.165h-.165v.988l-.164.165v.329l.164.165h-.164l-.165.165-.165.164h-.164l-.165.165h-.329l-.165.165v.164h-.165v.165h-.165l-.164.33h-.165l-.165.164v.165h-1.153l-.165-.165h-.164l-.659-.494-.494-.494-.33.329h-.164v.33h-.165l-.165.165-.164.164h-.165l-.494.165-.495.165-.823.494-.165.494h-.164v.165l.164.164h-.164l-.165.165-2.471 2.141-.494.33-.165.494-.164.165v-.165l-.165-.165-.165-.494h-.165l-.988-.165h-.329l-.33 1.812-.659.33-.164-.165-.165-.165-.988.494-.165.165v.494l-.494.165h-.33l-.164-.165.164.494-.329.165-.165.165-.494.823v-.164l-.165-.165-.823-2.141v-1.153l-.165-.659v-.165l-.165-.165-.494.165-1.317.494h-.824l-.33.33v.164l-.329.33-.165.329-.329.659h-.824l-1.647-.165-.165-.164-.494-.33h-.988l-.494-.329-.494.165-.659.658v.165l-.165-.165h-.494l-.823-.164h-.165l-.988-.494-1.318-1.318-.494-.988-.165-.165-.494-.165-1.483-.494-2.306-1.977v-.164l-.494-.33h-.329l-.165-.164h-.329l-.494.658-.495.659-.329.165v.659h-.329l-.165.165h-.165l-.494.494-2.471-2.142-.165-.329-.164-.659-2.306-.823-.33-.824-2.8-1.647-1.153-.165-1.482-.329-1.318-.165h-.165l-1.317-.329-.33-.495-.329-.658-1.153-.989-.33-.988-.164-1.153.329-.659-.165-.329-.658-.33h-.659l-.824-.494-.494-1.153-.165-.329-.659-.659-.164-.33-.989.33-1.317.329-.33.989-.494.164h-.329l-.33-.329-.164-.165-.33-.329v-.165l-.329-.329-.659-.165-1.812-.165-.494.165-.824-.494-.329-.33-1.483-.659-.329-.164-.165-.165-1.482-.329-1.318.329-.329.165h-1.318l-.659.164-2.635-1.317-.165-.165-.824-.988-.164-.33-.33-1.153-.494-.494v-.659l.494-1.153.165-.988v-.659l.165-.823.329-.989v-.494l.165-.659.329-.659-.329-1.153v-.658l.494-.659.165-.824v-.329h.164l1.318-.659 1.977-1.977.823-.494.824-.494 1.812-2.8.494-2.965.329-2.306.989-1.482.823-.659.165-.165.494-.824v-.164l.165-1.153-.494-1.483-.165-1.647v-.165l-.33-.494-.329-.659-.659-.329-.823-.824-.495-.494-1.153-.329h-.494l-.164.165-.824.164h-1.482l-.989 1.153h-.823l-.494.824-.659.494-.824.988-.329.989v.823l-.33.165h-1.482l-.824-.824-.988-.988v-.165l-.329-.494-.824.165-.494.494-1.153.329-.33.495h-.823l-.988-.165-.659.329h-.824v.33l-1.482 3.953-1.153.988-.33.165-.164.165-1.153.164h-.165v.165l-1.483.659-2.141-.988-.329-.165h-.165l-.824-.165-.164-.165v-.164l-.33-.33-.329-.659-.494-.164-.33-.165h-.164v.165l-.165.988v.165l-.165.164-.659.165-.164.659v.494l-.495.824-.658 1.153h-.165l-.494.494-3.13 4.612-1.482 2.306-.33.494-.494.659h-.165l-.329.165-.165.164-.164.33v.659h.164v.164l-.164.33v.164l.164.33.33.165v2.47l-.33.824v1.318l-.823 1.482v.988l-.824.989-.659.823h-.494l-.823-.165-.495.659-.329.494v1.153h-.165l-.164.165-.659.165-.824 1.482v1.483l-.988.823v.989l-.33.658-.494.824.494.494-.329.659-.494 1.153-.33.329-.658 1.153-.33.33-.329.329-1.812.659-.165.165-.659.329.165.494v.659l.165.494v1.812l-.494.989-.495.823-.658 1.483-.165.658.329.33.494.165 1.153 2.8.824 1.317v.165l-.165 1.153-.164.494-.33 2.471-1.482.494-.659 1.153v.988l.165 1.153v.495l-1.153 1.647v.329l-.33 1.483.165.988.165.165.658.329.659-.165h.494l.495.824.164 1.647 1.318 1.812.659.988.988.494h.165l.659 1.318 2.47 2.306.824-.988.824-.824.823-1.482.824-.989.988-.329.824-.329.494-.33h1.153l1.317.33 1.153.164.989-.329.494-.988.659-.659.494-.33.494-.659.824-.164.823.164.494-.164.165-.165.165-.165v-.164h.164l1.812.658 1.318.659h.824l1.153.824h.164l.165.494 1.318 2.306 1.153.329 1.153-.164.659-.824 1.482-.659.659-.329 1.153-1.153.494-.33.659-.823 1.153-.824h.494l2.306.494 1.153 1.153.329.33 1.648 1.153v.165l1.811 1.976 1.153 1.318.495.823.658.989.824 1.812.494 1.811-.329 2.142-.659 3.788-.494 1.812-.33 1.318v.164l-.164.989-.33.329-.494.824-1.482 1.317-1.153.824-1.812.824-.659.494h-.165l-.659 1.317-.164.165-.495 1.812v1.318l-.164 1.153v1.317l.164.824.165.165.824 2.306h.329l.988 1.976.824 1.977 1.812 2.471.659 1.317 1.482.494 1.647.659h.989l.823.494 3.13-.164v1.317l.329.659.659.989.494 1.153v.988l-.659.659-.494.823-.165 1.318.659.824.824 1.153-.165.494-.659.164.33.824.494-.494 1.647-.494.494-.824h.824l.823-.659 1.153-.988.494-.659.824-2.141.494-.824 1.153-1.976.824-.165.329-.494.659-1.153 1.153.823 1.318.824 4.612 2.965h.164l2.471 4.447h.659l.165-.165.164.165.165.165h.33l.164-.165h.494l.165-.329v-.824l.165-.329v2.965l-.165.329-.165.659.165.329h.659l.494.33.33.988h.329l1.318.165 1.153-.33.494-.164.329-.165.824-.659v.329l.329.33.33-.165.164.494-.164.165.164.165-.164.164v.165l-.165.33-.329-.165v.329l.658.494h.165l.824.659v.494h.164l.33-.494.494-.494v.988h.165l.823-.329h1.318l.165.329.988-.658.494.494.165.164.329.33v.494l.165.494v.165l.494.823.494.824.659-.165.824-.329.494-.165h.165l.658.165.165.165.494.329.494.329h.165l.329.165.495.165h.329l.165.165h1.482l.33-.165h.329l.165.165.164.164v.165l.165-.165h.165l.329-.329v-1.153l.33-.659v-.165l.329-.988.165-.659h.165l1.647.988h.164l.989-4.282.988-4.118.165-.659.329-1.647.165-1.482v-.165l.165-1.483.164-1.317.165-.165.165-2.635h.823l2.471.164h.824v-.988l.164-.494.165-.494h2.141l1.812.164h.659l3.624.33h.329l3.13.329h.165l3.459.33h1.153l.823.164h.659l2.471.165 1.482.165h1.647l.659.165h1.977l.823.164h.824l1.812.165.659.165 1.317.329 2.471.824h.329l1.153.329.494.165.495.165h.494v-.33l.329-.659.165-.494 2.635-4.777v-.164l1.977-.165h.165l.329-.165h.329l.824-.164h.329l1.318-.165.165.329.824.989.494 1.482.988.988 1.318-.164h.164l.824-.165 1.318-.33.988-.329.824-2.471 1.976-.823.165-.165.659.329.329.165.824.165.659.165h.823l.494-.165 1.483-.33.494-.164.329-.165.494-.494.165-.165.165-.329.329-.494.165-.33.165-.659v-.164l.164-.495v-6.423l-.164-.33-.165-.494v-.494l-.165-.824v-.494z" style="fill:#9f9f9f;stroke:#fff;stroke-miterlimit:10"/><path d="m473.176 197.622-.164-.164.164-.33.165-.329-.165-.494v-.989l-.823-.494-2.965-1.318-.494-.494-.165-.659-.494-1.482-.165-2.306-.823-.824v-1.317l-2.965-.989-2.471-.988-1.812-1.318h-.164l-.989-1.647-.988-.659-.329-.329-.495-.329-.164-.33-.659-.823-.659-.989-.329-.164-.659-.495-1.483-.988-2.141-.659-.329-.329-.165-.165-1.318-1.318-.329-.164-.824-.165-.165-.165-1.647-.494h-2.635l-1.647.165-.165.165-2.965.329-2.965-.329h-3.129l-1.318-.33-1.812-.329-1.482.329-.165.165-1.318 1.318.165.164 1.153 1.812-1.482 2.636-.495.164-.988.494-.329-.164-.989-.494-1.811.164-.495-.659-.164-.164v-.494l-.989-.165-.329-.659v-.659l-.824.33-.494.329-.494-.165-.494-.329-1.153-.824h-.165l-.494.165-2.306 1.153-1.153.824.165.823.329.824-.659 2.635-.164 1.647v1.153l-.165.824v.165l-1.482-.495-1.318-.823-.988-.494-1.483-1.977v-.329l-.329-1.483-1.153-.988-.989-.659-.658-1.153-.495-.823-.494-1.483-1.812-1.976-.164-.33-.659-.329-.494-.165-.33-.165-.329-.823-.494-.659-1.647-1.977.329-1.647-.988-.329v-.33l-.165-.823.824-.989.164-.823 1.318-.659.494-.165.988-1.153-.329-.988.988-1.482.659-.989h.988l.165-.164.33-.495.164-.494v-.494l-.164-.165 1.647-1.811h.659l.494-.165-.33-3.13v-.164l-.494-.659-.494-.824-1.812.494h-.988l-1.153-.988-1.812-1.318-1.647-1.812-.33-.329-.988-.494-.988-.33h-1.153l.165-.494v-.494l-.495-1.482-.988-.989-.165-.329-.329-1.153-.659-.329-.329-2.306h-.165l-.165-.165-1.153-.494-.164-.494-.659-1.153v-1.483l-1.318-.988-.329-.33-.165-.658-.33-.495-.494-1.153-.823-1.153v-.164l-.165-.33-.494-1.153.165-1.812.164-.164v-.165l.33-3.953 1.153-1.318 1.317-.823.33-.165.494-.33-.165-.658-.823-1.318h-.33l-.164-.659-.33-.494-.988-.659-.329-.659-.33-1.153-.494-1.647-.824-.824-.329-.823v-.33l-.165-.164-.329-.165-1.977.165h-.329l-.33.164-.494-.329-.494-.329-.659-.165-.494-.824v-.329l-.165-.165-.164-1.647-.495-1.153v-.165l-.164-.823.329-1.153-.165-.33-.658-.659h-1.153l-.495-.164-.988-.659-.329-.494-.165-.494-.494-.495v-.164l-.33-.165-1.153-.329-1.153-.165-.329-.165-.165-.165-.494-.494v-.164l-1.976-.33-.33-.988-.329-.33-.165-.164h-1.482l-.165-.165-.659-.494.165-1.153v-.494l.164-.33.33-1.153.494-1.317.494-1.318v-.824l-.329-1.482.164-.988.165-.33v-.494l-.659-1.977-.659-1.153-.494-.494-.329-.329-.494-1.153-.33-.494v-.165l-.164-.165-.495-.659-.988-.823-.494-.33-.165-.164-.329.164h-.988l-1.153.33-.824-.659-.329-.494-.495-.33-.164-.164h-.824l-.988.164-.494-.164h-.33l-2.8-.33-1.153-.494-.659-.659-1.153-.823-3.129-3.459-5.436-1.647h-.988l-1.153-.165-.165-.659-.329-.165-.824-.329-1.318-.165h-.329l-.659-.494h-.165l-.164.329-.165.165-.165.165h-.329l-1.318-.165-.988.824-1.318 1.153-.659.494-.494.329-.823.33-.33.164-.165.165-.494.33-.659.658-.329.33-.659.988-.329.494-.824 1.318-.165.329-.494.659-.164.165-.165.165-.165.329-.988.494-1.153.659-1.647.494-1.318.659-.494.33-1.482.658-.989 1.153-.659.989-.329.494-.494.823-.33.33-.658 1.647-.824.329h-.988l-.824.659h-1.482l-.165-.164-.988-.33-.494-.329-.659-.165-.824-.165-.988-.164v-.165l-1.318-.33h-.988l-.33-.164h-.659l-.823-.33-.824-.494-.164-.329-.33-.989v-.823l.165-.165.329-.823.494-1.153.165-.659h-.329l-1.318.164-.988.659-.659.33-.494.329-.33.165-.659.165h-1.811l-.659.823-.165.494-.824.659-.988.824-.659.494-.329.823-.494.495-.33.329-.164.165-.165.329-.165.33-.164.164h-.165l-1.647.165h-1.812l-.988-.165-.495-.164h-.164l-.659.494-.824.823h-.494l-.165-.164v-.165h-.164l-.824.329-.988.494-.165.659-.988.989-.494 1.976.164.33-.164 1.482-.165.329-.33.165-.988 1.318-.494.494-.659.329-.164.165-.659-.494-.165.165-.33.329-.164.494-.33.165h-.329l-.165.165-.659.329h-.329l-.494.33-.165.164-1.153.33h-.329l-.659.659-.33-.989h-.164v-.494l-.659.165v.329h-.988l-.165.494h-.659l-.824.659-.329.165.329.329v.165h-.494l-.165.165-.658.494-.33.329-.165.165-.329.33-.329.329-.33.165-.823.329h-.165l-.824-2.471-.823.165-.494.165-.495.165-.494.164-.988.33-.329.164.659 2.306.164.824-.823.329-.659-.494-.659-.329-.165.329-.823 1.318-1.812-.659-.659 1.153v.165l-.494.988-.33.659-.164.494.659 1.318v.494l-1.154.659-.164.165-1.153.494-1.318-.165-.988.329.329.659.165.494h-.659l-.494.165-.659.33v-.165h-.494l-.824-.165-1.153-.329-.494.164-.988.165h-.165l-.988-.823-1.318-.824-1.153-.824-1.153-.494-.659-.329-.329-.165-.329-.165h-.165l-.33-.164h-.329l-.659-.33h-.329l-.165-.164-.494-.165v.165h-.165l-.165.164v.165h-.164v.494l-.165.165-.33.659v.659l.165.164v.494l.165.33v.659h.165v.494h.164v2.306l-.164.165v.494l-.165.164-.165.33v.165h-.165v.329l-.164.165-.165.164-.165.165h-.164l-.165.165-.165-.165h-.165l-.164-.165h-.33v.165l-.164-.165h-.824l-.165-.164h-.494l-.164.164h-.165v.165h-.165v.165h-.165l-.164-.165-.165-.165h-.165l-.165-.164v-.165h-.988v.165h-.165v.988l-.164.165v.329l.164.165h-.164l-.165.165-.165.164h-.164l-.165.165h-.329l-.165.165v.164h-.165v.165h-.165l-.164.33h-.165l-.165.164v.165h-1.153l-.165-.165h-.164l-.659-.494-.494-.494-.33.329h-.164v.33h-.165l-.165.165-.164.164h-.165l-.494.165-.494.165-.824.494-.165.494h-.165v.165l.165.164h-.165l-.164.165-2.471 2.141-.494.33-.165.494-.164.165v-.165l-.165-.165-.165-.494h-.165l-.988-.165h-.329l-.33 1.812-.659.33-.164-.165-.165-.165-.988.494-.165.165v.494l-.494.165h-.33l-.164-.165.164.494-.329.165-.165.165-.494.823v-.164l-.165-.165-.823-2.141v-1.153l-.165-.659v-.165l-.165-.165-.494.165-1.317.494h-.824l-.33.33v.164l-.329.33-.165.329-.329.659h-.824l-1.647-.165-.164-.164-.495-.33h-.988l-.494-.329-.494.165-.659.658v.165l-.165-.165h-.494l-.823-.164h-.165l-.989-.494-1.317-1.318-.494-.988-.165-.165-.494-.165-1.483-.494-2.306-1.977v-.164l-.494-.33h-.329l-.165-.164h-.329l-.494.658-.495.659-.329.165v.659h-.33l-.164.165h-.165l-.494.494-2.471-2.142-.164-.329-.165-.659-2.306-.823-.33-.824-2.8-1.647-1.153-.165-1.482-.329-1.318-.165h-.165l-1.317-.329-.33-.495-.329-.658-1.153-.989-.33-.988-.164-1.153.329-.659-.165-.329-.658-.33h-.659l-.824-.494-.494-1.153-.165-.329-.659-.659-.164-.33-.989.33-1.317.329-.33.989-.494.164h-.329l-.33-.329-.164-.165-.33-.329v-.165l-.329-.329-.659-.165-1.812-.165-.494.165-.824-.494-.329-.33-1.483-.659-.329-.164-.165-.165-1.482-.329-1.318.329-.329.165h-1.318l-.659.164-2.635-1.317-.165-.165-.824-.988-.164-.33-.33-1.153-.494-.494v-.659l.494-1.153.165-.988v-.659l.165-.823.329-.989v-.494l.165-.659.329-.659-.329-1.153v-.658l.494-.659.165-.824v-.329h.164l1.318-.659 1.977-1.977.823-.494.824-.494 1.812-2.8.494-2.965.329-2.306.989-1.482.823-.659.165-.165.494-.824v-.164l.165-1.153-.494-1.483-.165-1.647v-.165l-.33-.494-.329-.659-.659-.329-.823-.824-.495-.494-1.153-.329h-.494l-.164.165-.824.164h-1.482l-.989 1.153h-.823l-.494.824-.659.494-.824.988-.329.989v.823l-.33.165h-1.482l-.824-.824-.988-.988v-.165l-.329-.494-.824.165-.494.494-1.153.329-.33.495h-.823l-.988-.165-.659.329h-.824v.33l-1.482 3.953-1.153.988-.33.165-.164.165-1.153.164h-.165v.165l-1.483.659-2.141-.988-.329-.165h-.165l-.824-.165-.164-.165v-.164l-.33-.33-.329-.659-.494-.164-.33-.165h-.164v.165l-.165.988v.165l-.165.164-.659.165-.164.659v.494l-.495.824-.658 1.153h-.165l-.494.494-3.13 4.612-1.482 2.306-.33.494-.494.659h-.165l-.329.165-.165.164-.164.33v.659h.164v.164l-.164.33v.164l.164.33.33.165v2.47l-.33.824v1.318l-.823 1.482v.988l-.824.989-.659.823h-.494l-.823-.165-.495.659-.329.494v1.153h-.165l-.164.165-.659.165-.824 1.482v1.483l-.988.823v.989l-.33.658-.494.824.494.494-.329.659-.494 1.153-.33.329-.658 1.153-.33.33-.329.329-1.812.659-.165.165-.659.329.165.494v.659l.165.494v1.812l-.494.989-.495.823-.658 1.483-.165.658.329.33.494.165 1.153 2.8.824 1.317v.165l-.165 1.153-.164.494-.33 2.471-1.482.494-.659 1.153v.988l.165 1.153v.495l-1.153 1.647v.329l-.165-.165v-.164l-1.318-.33v.165h-.329l-1.318.165-1.153-.659-.824.494h-1.811l-.495.165-.494-.33-.823-.164-.165.329-.494.165-.494.329-.659.494-.33.33-.329.329-.329.33-1.318.988h-.33l-.164.165-.659-.165h-.33l-.164.165-.989.494v.823l-.658.33-.33.659h-.823l-.165.164-.165.165-1.153.824-.494-.659-.494-.33h-.659l-.659-.164-.659-.165-.329-.494-.33-.33-.658-.329-.165-.165-.824-.165h-.329l-.824.165-.329-.494-.33-.165-.494-.659h-.494l-.165.165-.329-.165-.494-.329-.33-.329-.329-.659-1.153-.494-.165-.165-.329-.494-.33-.659-.658-.165-.165-.165-.824-.823-.164-.494-.165-.494-.659-.33v-.659l-.165-.329-.329-.824-.988-.329-.659.165h-2.471l-.329.329-.33.329-.165.165-.329.494-.329.494-.659 1.153.164.165.165.165-.329.988-.824.824v.988l-.329.494-.824.659v.165l-.165.659-.494.329-1.153.165-.494.329-.165.494-.164.33-.494-.165-.165.165h-.659l-.165.164-.329.33h-.165l.33.823v.33l.164.329-.164 3.953-1.153 2.142-.33.329-.659.165h-.329l-.494.165-.165.329-.659 1.318.165.329v.33l.165.494.164.659.165.823v.494l.165.33.329 1.153v.329l-.165.33-.494.494-.659 1.317-.164.33-.494.823-.165.33-.165.494.494 1.812.33.659.823.988.165 1.482-.165 1.318-.329.988-.165.165-1.153.33h-.988l-.165-.165-.494-.494-.824-.165-.164-.329-.165-.33-.329-1.647-1.318-.165-.165-.329-.165-.659-.494-.494-.164-.33-.659.33-.989-.165-1.317-.494-.659 1.318-1.153 1.317H35.86l-.165-.329-.164-.165-.165-.329h-.165l-1.153.659v.164l-1.317-.164-.165.164-1.153.33-.165-.165-.165-.165-.494-.658-.164-.989h-.824l-.329.33-.33.164-.494.165-.494.659-.494.494-.494.494-.33.494-1.482-1.317-1.977-.989-.165-.164-.658-.824-.33.33-1.318.494-.494.164-1.647 1.483.33.494.329.659v.494l.494.824.659.164.165.989.823.658.165.33v.823l.824.824.658.494.33.33.494 1.153.659.823.329.494h.989l.494.33.329.164.659.165.988.494h.165l.165.165.329.494v.988l.824 1.318 1.812 1.647-.659.494-.659.659v.165l-.165.494v.824l3.13 1.812v.823l.164.165.33.329.329.33.33.329.988 1.812 1.318 2.141.164.165.33.329 1.318.33.823-.33.659-.164h.165l.329.164.494.824.165.824v.494l.494 1.482h.165v.824h-.165v.164l-.165.165v.494l-.164.165v1.318l-.165.329-.165.33-.164.164-.165.494v.33h-1.318l-.329-.165-.494.165-.165.165h-.33l-.329.164-.659.165h-.165l-.329.329h-.165v.165h-.164l-.165.165-.33.165h-.329v-.165h-.659l-.165-.165-.164-.165-.33.165h-.164l-.165.165h-.33l-.329.165h-.329l-.33.164h-.165l-.164.165-.165.165-.165.164-.494.33v.165l-.165.164v.165l-.329.165-1.482.659-.824.823-.329.494h-.495l-1.317-.494h-.494l-1.153-.165-1.153-.164-.33.329-.329.494-.824.33h-.165l-1.647 1.317v.165l-.823.494-.659 1.153.329.659.165.494v.824l.329.988-.988.824.33 1.317h.164l1.647.989.165.329v.988l-.329.33-.33.165-.164.164-.495.989-.658.329-.495.988-.329.659-1.482 1.153-.33.824-.329.494.988.823 2.141 1.812-.494.824-.329.329-1.153 1.318-.989.988-.164.165-1.812 2.635-.659 1.153-1.318.659-.164.659v.33L10 236.66l.165.494.494.823 1.482-.329 1.647-.659.824-.824h1.647l1.483 1.153.658.495-.164 1.811v.165l.164 1.153v.988l-.494 1.648.659 2.635.33.329.329.165.329 1.812.495.824.329.494-.329 3.294v.988l-.165.165-.494 1.318-.33.988-.164.659.494.659-.165.329v.33l-.329.329v.329l-.33 3.624-.329 1.483v.658l-1.318 1.812-.165.165-.329.659.823 2.471v.658l.165.495v.494l-.165.494-.988 1.976v.165l.33 1.153.988 1.318.165.165 1.153.329.823.494.824.33.329 1.482-.165 2.8 2.306 2.471h.495l.658-.165 1.648-.165 2.141-.164 1.153-.989.659-.658.659.164h.494l.494.33.165.164h.164l.659.165 1.318.988.494.495.494 1.482h.659l.824.329h1.811v2.801l-.164 2.306-1.483 3.623v.659l-.164.33 1.647.329.494.329 1.318.495h.164l.989-.33 1.976-.659.988-.988.659.824h3.459l1.318-.165.494-.33h.165l1.318-1.976 4.282-.165.494-.329.33-1.812h.494l.165-.165.164-.329.33-1.153-.165-.989 1.812-.823.823-.988 1.648.988.988.165.494-.165.329-.165.659.33.494.329 1.153-.329.659.329v2.965l.165.659.165.494h.329l.165.165.329-.33.659-.494 2.471-1.647h.165v-.165l1.647-.988.329-.494.824 1.153-.165 2.47 2.471-.823.164-.659v-.165l.495-1.153.658-1.482h.165v-.165l.824-1.482.494-.165.823-.329 2.142-.165h.659l.329.165h.329l.33.164.329.659.494.494.989 1.483.329.494.165.329.659.659.164.33h.165l.165.329v.165l.165.164v.165l.164.33h.33l.329-.165v-.165l.659-.659.165-.164h.329l.494-.33h2.306l.33-.165.659-.164.988-.33.659-.329h.164l.495-.165h.164l.33-.165.164.165.824.33.494.494.494.329.33.33.659.658.988.824.165.165.164.164h.165l.494.165h.659l.329.165.824-.165h.329l.495.165v-.165h1.317l.165.165h.659v.165h.165l.329.164h.329l.165.165h1.153l.33.165h.329l.165.164.659.165h.329l.988.33h.659l.33.164.329-.164h.165l.329-.165h.988l.165.165.165.164.494.165h.165l.329-.494.165-.33.165-.329.164-.494v-.165l.165-.494v-.494l-.165-.659-.164-.165-.33-.494-.165-.165v-3.294l.659-1.812h.989v.494l.164.165v.165h.165l.165.165.164.329-.164.329-.165.33-.329.329-.165.33-.165.164.165.165.165.33.164.164v.165l.165.165.329.329.33.659.823 1.318.165.329.165.33 1.318 1.317.494.494.164-.164v-.824l-.164-.494v-.824l.164.165v.165l.659.494 1.153.659.494.329.495.165.658.329.33.165.165.165h.164l.165.165.165.329h.164v.165h.33l.494.164.329.165.165.33.165.494.165.329.164.165h.659l.165.165h.165l1.811.823.989.988.164.33.659.823.659.659.494.494 2.306 1.153.659.659.33.494.164.165.989.824v.164l.329.659.329.659.165.165v.165l.33.494.658.988v.165l.33.659.165.823.164.165.33.659.164.329.33.494v.494l.165.659.494.33.329.329.824.659.329.494.165 1.318.494.659.165.494-.165 1.482.494.33h.165l2.141.164.988.33h.824l.824-.33h.494l2.965.989.823-.165.33.165v.823l.164.824v.494l-.659.329-.164.989-.165.329.165.165.329.659v.329h.659l.494.33v.988l-.165.988.33.824h.165l.164.164.165.165.165.659v.329l-.33.659.494.33.33.164.988.33h.824l.659 1.153-.165 1.812v1.482l-.165.659-.165.165-.329.988-.165.329h.165l.329.33.165.165.33.823-.165.494v.494l.165.165.658.659.33 1.482h.165l.329.165-.165.33v.823l1.318 1.483.824.988.329.329.494.33.659.494h.165l.659.494.164 1.153v.329l.33.165v2.471l-1.483.988-.823.659-.165.329-.824.33-.658.329-.824.33-1.153.494h-1.318l-2.306-1.483-.988-.164-1.153-.165h-3.788l-1.483.329-.329.33-.989.659-.329.164-1.647.989-1.318 1.317-.659 1.483-.164 1.153.329.329.165.165.329.329.33.165.658.33.824.988.824.823.823 1.812.165.33.823 2.47 1.812-2.8 1.153-.988 1.812-1.482 2.141-.495 1.648-.329.494-.988 2.47-1.318h.989l1.812.165.164.164.165.824.165.824.164.329-.164.824-.165 1.153-.494 1.153-1.318 2.8-.165.494-.329 2.471v.494l.165.164v.495l1.153.658.329.659.165.33.329.823.824.494.329.165.494.165 2.801.494h.164l1.483.659 1.976.823.494.165.824.165h2.471l1.976-.494.33-.33.494-.659 1.976-.329.495-.659.494-.494h.658l1.154-.494.658-.33.495-.164v-.989l.658-.329.33-.329.823-.659h.989l.823-.824 2.471-1.153.659-1.318.165-.988.164-.329.494-.165.165.329.659.33h1.482l.494-.33.659-.658.165-.495h.329l.495-.164.988.659.165.164v.494l-.165.165.824 1.153v.165l.329.329.494.165.494-.329.165-.165h.494l1.647 1.482 1.153.824.659.494.824 1.318.164.164.494.495.495.823v.165l.329.329.494 1.483v.164l.494 2.636h6.424l1.483.494.494-.165 1.482-1.317.824.494h.329l.165.164h.165l.494.165.164-.659.659-.494.165-.165h.494l.659.165.33.165 1.317.659.33-.33h.329l.165.165h.329l1.483.494h.494l.165-.659v-.164l.823-2.471v-.165l.165-.823.494-.824.165-.329.494-.989.659-1.153.988-2.635v-.824l1.153-.659 1.153-.658 1.482-1.153.989-.659.988-.659h.824l.494-.165.494.494h2.471l.494-.329.988-.494 1.647-.494.659-.165 1.318-.165.164-.165.824-.494h.165v-.164l1.317-.33.824-2.635 7.247.823.659-2.141.659-.659 2.141-1.482.494-.494h.165l.165-.33.494-1.318.988-1.153.495-.494v-1.482l.164-.494.824-.33.823-.329.824-.659 2.141-.824.824-.164.988-.33 1.153-1.647.824-2.306.164-.988.165-.33.33-.494.329-.823 2.141-.494 1.647.329.989-.824h1.317l.989.824.658.494.165.494.494 1.153h.165l1.812.989.494.658.165.165.988.494 1.153-1.153 2.471.824 1.812 1.482 1.482-.164.988.494 1.812-2.142.165-.164.494-.165.988-.659 1.977-.329.165-.33.164-.494.659-.165h.494l1.648-.494.494-.988.494-.165 1.976-.659 2.471-1.976.165-.165 2.141-1.976h.165l.494.494 1.812 1.317.823.165h.33l5.106 3.13 1.647-.989 1.647-1.976.824-.988 4.941-.495.824.495v.164l.164-.164h.165l.494-.165h1.153l.165-.165h.494l.165-.165.165-.164.329-.33.165-.164h.164l.165-.165h.165l.494-.165h.659l.494-.165h.659l.165-.164h.329v-.165l.329-.165.495-.329.164-.165.165-.165.165-.164v-1.153l.164-.33.165-.164.165-.495.165-.164.164-.165.165-.165.165-.164h.164l.824-.659.329-.165v-.165l.824-.988.329-.329.165-.165.33-.33.329-.658.494-.659v-.165l.165-.494v-.659l.165-.165v-.164l-.165-.165v-.33h.165l.658-.164h.659l.165-.165.329-.165 1.153-.659h.165l.33-.164.658-.165.659-.329.33-.165h.164l.165-.165.165-.165.165-.164.329-.33.659-.494.494-.329 1.153-.33.494-.164h2.306l.33.164h.658l.33.165.329.494.33.494h.164l.33.33.329.164.33.989.659.823.494.33.164.164.33.33.165.329.329.494.329.659.165.165-.329.988-.165.494v.659l.329.494.165.495.165.494v.164l.329.33.494.329v.165l.165.329.494.495v1.482l.165.165.165.329.659.33.164.164.494.33.165.329v1.153l.165.165v.494l.165.165v.164l.494.165h.164l.165.165h.33l.329.329.165.494.164.165.165.165.33.329.164.165.494.329.495.165v.165h.164l.494.165.824.494.165.164.164.165h.33l.165.165h.329v.165l.165.329v1.318l-.165.164v.33l-.165.165v2.635h1.153l1.318.165h.659v-.165l.165.165h1.647l.329.164h.659l.165.165h.329l.494.165h1.483l.329.165.494.164.33.165.659.165h.494l.164.164h.165l.33.165.164.33.165.329.165.165.164.329.165.165h.33l.329-.33.165-.164.164-.165.165-.165h.165l.659-.494.164-.165h.165v.165h.988l.33.165.494.329h.165l1.153.659h1.317l.165-.165h.165l.165-.164h.658l.165.164h.165l.329.165h.495l.329-.329.165-.165h.329l.494.165.494-.165h.33l.659-.165v-.164l.164-.165.165-.33v-.164l.494-.659.165-.165h.988v-.165h.165l.165-.164.329-.33v-.164l.329-.165.33-.33.329-.329h.165l.165-.165.164-.164.33-.33v-.165l.329-.329.494-.659.165-.329.165-.494h.165l.164-.33h.165l.165-.329v-.165l.494-.659v-.165l.329-.329v-.165h.165l.165-.164.329-.165.33-.33.164-.164h.165l.165-.165h.164l.495.329h.164v-.658l.165-.165v-.33l.165-.329-.33-.824-.329-.494v-.164l-.494-.989-.33-.494-.164-.494v-.165l.164-.659h.165l.659-.494.165-.494h.164l.165-.329v-.165l.494-.659.165-.329v-.33l.659-.988v-.165h.164l.495-.329.164-.165.165-.165.329-.658.33-.33.494-.659.988-.988h.989l.329-.329.494-.495.494-.329.165-.329.329-.33.165-.165.494-.329.33-.329.329-.33.165-.165h.329l.824-.164h.165l.329-.33h.165l.164-.164h.165l.33-.165.658-.494 1.648-.165h.494l1.317.329.165-.329.165-.329.329-.33h.33v-.165l.164-.164.495-.33.164-.164h.33l.164-.165.165-.165h1.483l.164-.165h.165l.165.165h.164l.165.165h1.153l.165-.165h.494l.165-.165h.823v.165h.33l.329.165h.659l.165-.165h.329l.494-.329.165-.165.165-.165h.164l.165-.164.33-.165.164-.165.494-.165.165-.164.33-.165.329-.165h.165l.329-.164.165-.165.165-.165h.164l.33-.165h1.812l.164-.164h.33l.329-.165.165-.165.165-.164h.658l.165-.165h.494l.33-.165h.164l.33-.165h.329v-.164h.165l.165-.165v-.165l.164-.164.165-.165.165-.165h.165v-.165l.164-.164v-2.306h.165v-.824l-.165-.165v-.329l-.164-.165v-.164l-.165-.33v-.329l-.165-.165v-.494l-.165-.165v-.494l-.164-.165v-1.317l.164-.165v-.659l.165-.165v-.164l.165-.165h.165v-.165h.164l.165-.165.165-.164.164-.165-1.647-2.8-.329-1.153-.165-.165-.659-1.482v-.659l-.164-.659.329-.659 1.482-1.318h1.153l.33-2.635.329-.988-.164-.33-.495-.164.659-1.153h.659l.659-.495 1.812-.164 1.647-.33 1.482-.494 4.283-.494v-2.635l-.329-1.153.164-.33.989-1.318h.164l1.318-1.976.329-.33 3.295-1.811.494-.659v-2.142l.823-1.976.33-.824 3.129-2.141 1.483-.659h.165l1.482-.659.824-6.259.164-.165.33-1.647v-.988l.329-2.635-.165-.659v-.33l.165-1.317.165-.33.165-4.777.329-1.811.165-.495-1.318-1.976-.165-1.812-1.153-1.482-.988-1.318-.824-.824.495-1.317v-3.459l.164-1.153.165-.33.494-.823 1.153-.33.165-.165.494-.988.165-.659-.824-1.317-1.812-6.424.494-1.153.824-1.318 1.977-2.471.658-.823.33-.165-.165-.824v-.494l.659-.494.824-.659.494-.659.988-.658-.329-.495-.165-.164-.165-.494-.823-1.153.164-.659v-.824l.824-1.318.165-.164 1.811-.33.659-.164.824-.33 2.141-.823.494-.33.989-1.153h1.153l.988-.494.165-.329.164-.824.824-4.612.165-.165.329-.329z" style="fill:none;stroke:#d8d8d8;stroke-miterlimit:10"/></svg>